<?xml version="1.0" encoding="UTF-8"?>
<svg version="1.1" xmlns="http://www.w3.org/2000/svg" width="499" height="500">
<path d="M0 0 C12.36918715 -0.02312154 24.73836919 -0.04091412 37.10757351 -0.05181217 C42.85045062 -0.05704141 48.59331301 -0.0641398 54.33618164 -0.07543945 C59.87339995 -0.08626687 65.41060404 -0.09227652 70.94783211 -0.09487724 C73.06544277 -0.09673176 75.18305262 -0.10035286 77.30065727 -0.10573006 C80.25571274 -0.11293856 83.21070871 -0.11399102 86.16577148 -0.11352539 C87.05049637 -0.11712067 87.93522125 -0.12071594 88.84675598 -0.12442017 C94.88594784 -0.11405216 94.88594784 -0.11405216 96 1 C96.07313567 3.53049402 96.09247527 6.03304837 96.0625 8.5625 C96.05798828 9.27341797 96.05347656 9.98433594 96.04882812 10.71679688 C96.03700864 12.47790013 96.01907263 14.23896036 96 16 C97.60681641 15.98259766 97.60681641 15.98259766 99.24609375 15.96484375 C100.64322743 15.95546701 102.04036299 15.94636669 103.4375 15.9375 C104.14455078 15.92912109 104.85160156 15.92074219 105.58007812 15.91210938 C107.38693559 15.90346412 109.19387603 15.94779989 111 16 C112 17 112 17 112.09765625 20.16015625 C112.06510417 23.7734375 112.03255208 27.38671875 112 31 C116.95 31 121.9 31 127 31 C127 51.46 127 71.92 127 93 C131.62 93 136.24 93 141 93 C143 95 143 95 143.22705078 97.88916016 C143.21134033 99.69586182 143.21134033 99.69586182 143.1953125 101.5390625 C143.18564453 103.49199219 143.18564453 103.49199219 143.17578125 105.484375 C143.15906929 106.86458595 143.14213939 108.24479429 143.125 109.625 C143.11497006 111.01301452 143.10584423 112.40103589 143.09765625 113.7890625 C143.07401863 117.19288026 143.04106867 120.59635506 143 124 C143.90355225 123.99476318 144.80710449 123.98952637 145.73803711 123.98413086 C149.07951489 123.96712314 152.42094692 123.95456667 155.76245117 123.94506836 C157.21070073 123.94002899 158.65894517 123.93319747 160.10717773 123.92456055 C162.18474588 123.91247753 164.26224697 123.90676789 166.33984375 123.90234375 C167.59144287 123.89710693 168.84304199 123.89187012 170.13256836 123.88647461 C173 124 173 124 174 125 C174.07313567 127.53049402 174.09247527 130.03304837 174.0625 132.5625 C174.05798828 133.27341797 174.05347656 133.98433594 174.04882812 134.71679688 C174.03700864 136.47790013 174.01907263 138.23896036 174 140 C174.57407089 139.99777939 175.14814178 139.99555878 175.73960876 139.99327087 C181.6925291 139.97121743 187.6454379 139.95609316 193.59838867 139.94506836 C195.82267732 139.94002683 198.04696263 139.93319377 200.27124023 139.92456055 C203.46078309 139.91248702 206.65028229 139.90677004 209.83984375 139.90234375 C210.84087631 139.89718246 211.84190887 139.89202118 212.87327576 139.88670349 C213.79415482 139.88662796 214.71503387 139.88655243 215.66381836 139.88647461 C216.47878281 139.884254 217.29374725 139.88203339 218.13340759 139.87974548 C220 140 220 140 221 141 C221 145.95 221 150.9 221 156 C256.97 156 292.94 156 330 156 C330 166.23 330 176.46 330 187 C334.95 187 339.9 187 345 187 C345 208.12 345 229.24 345 251 C338.25 252.125 338.25 252.125 334.125 251.5625 C332.95324219 251.40974609 332.95324219 251.40974609 331.7578125 251.25390625 C331.17773438 251.17011719 330.59765625 251.08632813 330 251 C330.00785522 252.40076782 330.00785522 252.40076782 330.01586914 253.82983398 C330.0328762 257.28312796 330.04543302 260.73637767 330.05493164 264.18969727 C330.05997121 265.68644918 330.06680287 267.18319616 330.07543945 268.67993164 C330.08752159 270.82699807 330.09323191 272.97399962 330.09765625 275.12109375 C330.10551147 277.06133423 330.10551147 277.06133423 330.11352539 279.04077148 C330 282 330 282 329 283 C326.4672235 283.07320163 323.96896082 283.09227569 321.4375 283.0625 C318.983125 283.041875 316.52875 283.02125 314 283 C314 287.95 314 292.9 314 298 C309.05 298 304.1 298 299 298 C299.0309375 301.4340625 299.0309375 301.4340625 299.0625 304.9375 C299.08370868 307.29166332 299.07271741 309.64686445 299 312 C298 313 298 313 294.62109375 313.09765625 C293.22652508 313.09191424 291.83198403 313.07890228 290.4375 313.0625 C287.983125 313.041875 285.52875 313.02125 283 313 C283 318.28 283 323.56 283 329 C272.77 329 262.54 329 252 329 C252 333.95 252 338.9 252 344 C251 345 251 345 248.13256836 345.11352539 C246.88096924 345.10828857 245.62937012 345.10305176 244.33984375 345.09765625 C243.34314415 345.09553383 243.34314415 345.09553383 242.3263092 345.09336853 C240.19666101 345.08775518 238.06711661 345.07520054 235.9375 345.0625 C234.49674631 345.05748671 233.05599097 345.05292351 231.61523438 345.04882812 C228.07675042 345.03863076 224.53849187 345.0190583 221 345 C221 349.95 221 354.9 221 360 C210.44 360 199.88 360 189 360 C189 369.57 189 379.14 189 389 C193.89153471 388.9604321 193.89153471 388.9604321 198.78295898 388.90991211 C200.52221717 388.90275087 202.26145304 388.94975298 204 389 C205.82116003 390.82116003 205.1323508 393.30671764 205.13671875 395.7265625 C205.13285156 396.47679687 205.12898438 397.22703125 205.125 398 C205.12886719 398.75023437 205.13273437 399.50046875 205.13671875 400.2734375 C205.12661053 405.87338947 205.12661053 405.87338947 204 407 C202.03630847 407.0940067 200.06920801 407.11743381 198.10327148 407.11352539 C196.84203964 407.11344986 195.5808078 407.11337433 194.28135681 407.11329651 C192.89460206 407.1081891 191.50784771 407.10297309 190.12109375 407.09765625 C188.71004791 407.09579201 187.29900143 407.09436814 185.88795471 407.09336853 C182.16759465 407.08954379 178.4472734 407.0797139 174.72692871 407.06866455 C170.93319219 407.05844948 167.13944942 407.05387071 163.34570312 407.04882812 C155.89711769 407.03809158 148.44856428 407.0210157 141 407 C139.16742493 392.66515014 139.16742493 392.66515014 141 389 C145.95 389 150.9 389 156 389 C156 379.43 156 369.86 156 360 C146.43 360 136.86 360 127 360 C127.01160156 363.30902344 127.02320313 366.61804688 127.03515625 370.02734375 C127.04294581 373.21769108 127.04902314 376.40803737 127.05493164 379.59838867 C127.05997317 381.82267732 127.06680623 384.04696263 127.07543945 386.27124023 C127.08751298 389.46078309 127.09322996 392.65028229 127.09765625 395.83984375 C127.10539818 397.34139259 127.10539818 397.34139259 127.11329651 398.87327576 C127.11337204 399.79415482 127.11344757 400.71503387 127.11352539 401.66381836 C127.115746 402.47878281 127.11796661 403.29374725 127.12025452 404.13340759 C127 406 127 406 126 407 C124.04175302 407.09925773 122.07990103 407.12799414 120.11914062 407.12939453 C118.86113647 407.13254669 117.60313232 407.13569885 116.30700684 407.13894653 C114.92342087 407.13715675 113.53983522 407.1351058 112.15625 407.1328125 C110.74759911 407.13348559 109.33894834 407.13445565 107.93029785 407.13571167 C104.97451677 407.13718842 102.01876586 407.13503483 99.06298828 407.13037109 C95.26625416 407.12467381 91.46959072 407.12795293 87.67285919 407.13394356 C84.76303572 407.13754979 81.85322912 407.1364103 78.94340515 407.13381577 C77.543106 407.13314667 76.14280533 407.13397432 74.74250793 407.13629532 C72.78862536 407.13882283 70.83473745 407.13429033 68.88085938 407.12939453 C67.76690796 407.12859894 66.65295654 407.12780334 65.50524902 407.12698364 C63 407 63 407 62 406 C61.90002358 403.50941086 61.86120373 401.05272605 61.875 398.5625 C61.87113281 397.86833984 61.86726562 397.17417969 61.86328125 396.45898438 C61.87336006 391.25327988 61.87336006 391.25327988 63 389 C73.23 389 83.46 389 94 389 C94 379.43 94 369.86 94 360 C78.49 360 62.98 360 47 360 C47 355.05 47 350.1 47 345 C42.10846529 345.0395679 42.10846529 345.0395679 37.21704102 345.09008789 C35.47778283 345.09724913 33.73854696 345.05024702 32 345 C31 344 31 344 30.90234375 340.62109375 C30.90901631 339.22652923 30.92097468 337.83198257 30.9375 336.4375 C30.94201172 335.72658203 30.94652344 335.01566406 30.95117188 334.28320312 C30.96299136 332.52209987 30.98092737 330.76103964 31 329 C29.39318359 329.01740234 29.39318359 329.01740234 27.75390625 329.03515625 C26.35677257 329.04453299 24.95963701 329.05363331 23.5625 329.0625 C22.85544922 329.07087891 22.14839844 329.07925781 21.41992188 329.08789062 C19.61306441 329.09653588 17.80612397 329.05220011 16 329 C15 328 15 328 14.88647461 325.13256836 C14.89432983 323.25516968 14.89432983 323.25516968 14.90234375 321.33984375 C14.9037587 320.67537735 14.90517365 320.01091095 14.90663147 319.3263092 C14.91224482 317.19666101 14.92479946 315.06711661 14.9375 312.9375 C14.94251329 311.49674631 14.94707649 310.05599097 14.95117188 308.61523438 C14.96136924 305.07675042 14.9809417 301.53849187 15 298 C10.05 298 5.1 298 0 298 C0 282.49 0 266.98 0 251 C-4.95 251 -9.9 251 -15 251 C-16 250 -16 250 -16.12304783 248.20589352 C-16.12166514 247.02369401 -16.12166514 247.02369401 -16.12025452 245.81761169 C-16.12162918 244.91592255 -16.12300385 244.0142334 -16.12442017 243.08522034 C-16.11902725 241.58981972 -16.11902725 241.58981972 -16.11352539 240.06420898 C-16.11367142 239.02043091 -16.11381744 237.97665283 -16.1139679 236.90124512 C-16.11326826 233.43284057 -16.10547353 229.96448897 -16.09765625 226.49609375 C-16.09579225 224.09855682 -16.09436826 221.7010195 -16.09336853 219.30348206 C-16.08954194 212.97904416 -16.07971046 206.65462906 -16.06866455 200.3302002 C-16.05845345 193.88224598 -16.05387156 187.43428809 -16.04882812 180.98632812 C-16.03808832 168.32420871 -16.02101021 155.66210625 -16 143 C-20.95 142.67 -25.9 142.34 -31 142 C-31 137.05 -31 132.1 -31 127 C-35.89153471 127.0395679 -35.89153471 127.0395679 -40.78295898 127.09008789 C-42.52221717 127.09724913 -44.26145304 127.05024702 -46 127 C-47 126 -47 126 -47.11352539 123.13256836 C-47.10828857 121.88096924 -47.10305176 120.62937012 -47.09765625 119.33984375 C-47.0962413 118.67537735 -47.09482635 118.01091095 -47.09336853 117.3263092 C-47.08775518 115.19666101 -47.07520054 113.06711661 -47.0625 110.9375 C-47.05748671 109.49674631 -47.05292351 108.05599097 -47.04882812 106.61523438 C-47.03778145 103.07678898 -47.02050792 99.53840461 -47 96 C-47.90355225 96.00523682 -48.80710449 96.01047363 -49.73803711 96.01586914 C-53.07951489 96.03287686 -56.42094692 96.04543333 -59.76245117 96.05493164 C-61.21070073 96.05997101 -62.65894517 96.06680253 -64.10717773 96.07543945 C-66.18474588 96.08752247 -68.26224697 96.09323211 -70.33984375 96.09765625 C-71.59144287 96.10289307 -72.84304199 96.10812988 -74.13256836 96.11352539 C-77 96 -77 96 -78 95 C-78 89.39 -78 83.78 -78 78 C-62.49 78 -46.98 78 -31 78 C-31 62.49 -31 46.98 -31 31 C-26.05 31 -21.1 31 -16 31 C-16.020625 28.710625 -16.04125 26.42125 -16.0625 24.0625 C-16.08370868 21.70833668 -16.07271741 19.35313555 -16 17 C-15 16 -15 16 -11.62109375 15.90234375 C-10.22652508 15.90808576 -8.83198403 15.92109772 -7.4375 15.9375 C-4.983125 15.958125 -2.52875 15.97875 0 16 C0 10.72 0 5.44 0 0 Z " fill="#E5B37F" transform="translate(108,62)"/>
<path d="M0 0 C12.36918715 -0.02312154 24.73836919 -0.04091412 37.10757351 -0.05181217 C42.85045062 -0.05704141 48.59331301 -0.0641398 54.33618164 -0.07543945 C59.87339995 -0.08626687 65.41060404 -0.09227652 70.94783211 -0.09487724 C73.06544277 -0.09673176 75.18305262 -0.10035286 77.30065727 -0.10573006 C80.25571274 -0.11293856 83.21070871 -0.11399102 86.16577148 -0.11352539 C87.05049637 -0.11712067 87.93522125 -0.12071594 88.84675598 -0.12442017 C94.88594784 -0.11405216 94.88594784 -0.11405216 96 1 C96.07313567 3.53049402 96.09247527 6.03304837 96.0625 8.5625 C96.05798828 9.27341797 96.05347656 9.98433594 96.04882812 10.71679688 C96.03700864 12.47790013 96.01907263 14.23896036 96 16 C97.60681641 15.98259766 97.60681641 15.98259766 99.24609375 15.96484375 C100.64322743 15.95546701 102.04036299 15.94636669 103.4375 15.9375 C104.14455078 15.92912109 104.85160156 15.92074219 105.58007812 15.91210938 C107.38693559 15.90346412 109.19387603 15.94779989 111 16 C112 17 112 17 112.09765625 20.16015625 C112.06510417 23.7734375 112.03255208 27.38671875 112 31 C116.95 31 121.9 31 127 31 C127 51.46 127 71.92 127 93 C131.62 93 136.24 93 141 93 C143 95 143 95 143.22705078 97.88916016 C143.21134033 99.69586182 143.21134033 99.69586182 143.1953125 101.5390625 C143.18564453 103.49199219 143.18564453 103.49199219 143.17578125 105.484375 C143.15906929 106.86458595 143.14213939 108.24479429 143.125 109.625 C143.11497006 111.01301452 143.10584423 112.40103589 143.09765625 113.7890625 C143.07401863 117.19288026 143.04106867 120.59635506 143 124 C143.90355225 123.99476318 144.80710449 123.98952637 145.73803711 123.98413086 C149.07951489 123.96712314 152.42094692 123.95456667 155.76245117 123.94506836 C157.21070073 123.94002899 158.65894517 123.93319747 160.10717773 123.92456055 C162.18474588 123.91247753 164.26224697 123.90676789 166.33984375 123.90234375 C167.59144287 123.89710693 168.84304199 123.89187012 170.13256836 123.88647461 C173 124 173 124 174 125 C174.07313567 127.53049402 174.09247527 130.03304837 174.0625 132.5625 C174.05798828 133.27341797 174.05347656 133.98433594 174.04882812 134.71679688 C174.03700864 136.47790013 174.01907263 138.23896036 174 140 C174.57407089 139.99777939 175.14814178 139.99555878 175.73960876 139.99327087 C181.6925291 139.97121743 187.6454379 139.95609316 193.59838867 139.94506836 C195.82267732 139.94002683 198.04696263 139.93319377 200.27124023 139.92456055 C203.46078309 139.91248702 206.65028229 139.90677004 209.83984375 139.90234375 C210.84087631 139.89718246 211.84190887 139.89202118 212.87327576 139.88670349 C213.79415482 139.88662796 214.71503387 139.88655243 215.66381836 139.88647461 C216.47878281 139.884254 217.29374725 139.88203339 218.13340759 139.87974548 C220 140 220 140 221 141 C221 145.95 221 150.9 221 156 C256.97 156 292.94 156 330 156 C330 166.23 330 176.46 330 187 C334.95 187 339.9 187 345 187 C345 208.12 345 229.24 345 251 C338.25 252.125 338.25 252.125 334.125 251.5625 C332.95324219 251.40974609 332.95324219 251.40974609 331.7578125 251.25390625 C331.17773438 251.17011719 330.59765625 251.08632813 330 251 C330.00785522 252.40076782 330.00785522 252.40076782 330.01586914 253.82983398 C330.0328762 257.28312796 330.04543302 260.73637767 330.05493164 264.18969727 C330.05997121 265.68644918 330.06680287 267.18319616 330.07543945 268.67993164 C330.08752159 270.82699807 330.09323191 272.97399962 330.09765625 275.12109375 C330.10551147 277.06133423 330.10551147 277.06133423 330.11352539 279.04077148 C330 282 330 282 329 283 C326.4672235 283.07320163 323.96896082 283.09227569 321.4375 283.0625 C318.983125 283.041875 316.52875 283.02125 314 283 C314 287.95 314 292.9 314 298 C309.05 298 304.1 298 299 298 C299.0309375 301.4340625 299.0309375 301.4340625 299.0625 304.9375 C299.08370868 307.29166332 299.07271741 309.64686445 299 312 C298 313 298 313 294.62109375 313.09765625 C293.22652508 313.09191424 291.83198403 313.07890228 290.4375 313.0625 C287.983125 313.041875 285.52875 313.02125 283 313 C283 318.28 283 323.56 283 329 C272.77 329 262.54 329 252 329 C252 333.95 252 338.9 252 344 C251 345 251 345 248.13256836 345.11352539 C246.88096924 345.10828857 245.62937012 345.10305176 244.33984375 345.09765625 C243.34314415 345.09553383 243.34314415 345.09553383 242.3263092 345.09336853 C240.19666101 345.08775518 238.06711661 345.07520054 235.9375 345.0625 C234.49674631 345.05748671 233.05599097 345.05292351 231.61523438 345.04882812 C228.07675042 345.03863076 224.53849187 345.0190583 221 345 C221 349.95 221 354.9 221 360 C210.44 360 199.88 360 189 360 C189 369.57 189 379.14 189 389 C193.89153471 388.9604321 193.89153471 388.9604321 198.78295898 388.90991211 C200.52221717 388.90275087 202.26145304 388.94975298 204 389 C205.82116003 390.82116003 205.1323508 393.30671764 205.13671875 395.7265625 C205.13285156 396.47679687 205.12898438 397.22703125 205.125 398 C205.12886719 398.75023437 205.13273437 399.50046875 205.13671875 400.2734375 C205.12661053 405.87338947 205.12661053 405.87338947 204 407 C202.03630847 407.0940067 200.06920801 407.11743381 198.10327148 407.11352539 C196.84203964 407.11344986 195.5808078 407.11337433 194.28135681 407.11329651 C192.89460206 407.1081891 191.50784771 407.10297309 190.12109375 407.09765625 C188.71004791 407.09579201 187.29900143 407.09436814 185.88795471 407.09336853 C182.16759465 407.08954379 178.4472734 407.0797139 174.72692871 407.06866455 C170.93319219 407.05844948 167.13944942 407.05387071 163.34570312 407.04882812 C155.89711769 407.03809158 148.44856428 407.0210157 141 407 C139.16742493 392.66515014 139.16742493 392.66515014 141 389 C145.95 389 150.9 389 156 389 C156 379.43 156 369.86 156 360 C146.43 360 136.86 360 127 360 C127.01160156 363.30902344 127.02320313 366.61804688 127.03515625 370.02734375 C127.04294581 373.21769108 127.04902314 376.40803737 127.05493164 379.59838867 C127.05997317 381.82267732 127.06680623 384.04696263 127.07543945 386.27124023 C127.08751298 389.46078309 127.09322996 392.65028229 127.09765625 395.83984375 C127.10539818 397.34139259 127.10539818 397.34139259 127.11329651 398.87327576 C127.11337204 399.79415482 127.11344757 400.71503387 127.11352539 401.66381836 C127.115746 402.47878281 127.11796661 403.29374725 127.12025452 404.13340759 C127 406 127 406 126 407 C124.04175302 407.09925773 122.07990103 407.12799414 120.11914062 407.12939453 C118.86113647 407.13254669 117.60313232 407.13569885 116.30700684 407.13894653 C114.92342087 407.13715675 113.53983522 407.1351058 112.15625 407.1328125 C110.74759911 407.13348559 109.33894834 407.13445565 107.93029785 407.13571167 C104.97451677 407.13718842 102.01876586 407.13503483 99.06298828 407.13037109 C95.26625416 407.12467381 91.46959072 407.12795293 87.67285919 407.13394356 C84.76303572 407.13754979 81.85322912 407.1364103 78.94340515 407.13381577 C77.543106 407.13314667 76.14280533 407.13397432 74.74250793 407.13629532 C72.78862536 407.13882283 70.83473745 407.13429033 68.88085938 407.12939453 C67.76690796 407.12859894 66.65295654 407.12780334 65.50524902 407.12698364 C63 407 63 407 62 406 C61.90002358 403.50941086 61.86120373 401.05272605 61.875 398.5625 C61.87113281 397.86833984 61.86726562 397.17417969 61.86328125 396.45898438 C61.87336006 391.25327988 61.87336006 391.25327988 63 389 C73.23 389 83.46 389 94 389 C94 379.43 94 369.86 94 360 C78.49 360 62.98 360 47 360 C47 355.05 47 350.1 47 345 C42.10846529 345.0395679 42.10846529 345.0395679 37.21704102 345.09008789 C35.47778283 345.09724913 33.73854696 345.05024702 32 345 C31 344 31 344 30.90234375 340.62109375 C30.90901631 339.22652923 30.92097468 337.83198257 30.9375 336.4375 C30.94201172 335.72658203 30.94652344 335.01566406 30.95117188 334.28320312 C30.96299136 332.52209987 30.98092737 330.76103964 31 329 C29.39318359 329.01740234 29.39318359 329.01740234 27.75390625 329.03515625 C26.35677257 329.04453299 24.95963701 329.05363331 23.5625 329.0625 C22.85544922 329.07087891 22.14839844 329.07925781 21.41992188 329.08789062 C19.61306441 329.09653588 17.80612397 329.05220011 16 329 C15 328 15 328 14.88647461 325.13256836 C14.89432983 323.25516968 14.89432983 323.25516968 14.90234375 321.33984375 C14.9037587 320.67537735 14.90517365 320.01091095 14.90663147 319.3263092 C14.91224482 317.19666101 14.92479946 315.06711661 14.9375 312.9375 C14.94251329 311.49674631 14.94707649 310.05599097 14.95117188 308.61523438 C14.96136924 305.07675042 14.9809417 301.53849187 15 298 C10.05 298 5.1 298 0 298 C0 282.49 0 266.98 0 251 C-4.95 251 -9.9 251 -15 251 C-16 250 -16 250 -16.12304783 248.20589352 C-16.12166514 247.02369401 -16.12166514 247.02369401 -16.12025452 245.81761169 C-16.12162918 244.91592255 -16.12300385 244.0142334 -16.12442017 243.08522034 C-16.11902725 241.58981972 -16.11902725 241.58981972 -16.11352539 240.06420898 C-16.11367142 239.02043091 -16.11381744 237.97665283 -16.1139679 236.90124512 C-16.11326826 233.43284057 -16.10547353 229.96448897 -16.09765625 226.49609375 C-16.09579225 224.09855682 -16.09436826 221.7010195 -16.09336853 219.30348206 C-16.08954194 212.97904416 -16.07971046 206.65462906 -16.06866455 200.3302002 C-16.05845345 193.88224598 -16.05387156 187.43428809 -16.04882812 180.98632812 C-16.03808832 168.32420871 -16.02101021 155.66210625 -16 143 C-20.95 142.67 -25.9 142.34 -31 142 C-31 137.05 -31 132.1 -31 127 C-35.89153471 127.0395679 -35.89153471 127.0395679 -40.78295898 127.09008789 C-42.52221717 127.09724913 -44.26145304 127.05024702 -46 127 C-47 126 -47 126 -47.11352539 123.13256836 C-47.10828857 121.88096924 -47.10305176 120.62937012 -47.09765625 119.33984375 C-47.0962413 118.67537735 -47.09482635 118.01091095 -47.09336853 117.3263092 C-47.08775518 115.19666101 -47.07520054 113.06711661 -47.0625 110.9375 C-47.05748671 109.49674631 -47.05292351 108.05599097 -47.04882812 106.61523438 C-47.03778145 103.07678898 -47.02050792 99.53840461 -47 96 C-47.90355225 96.00523682 -48.80710449 96.01047363 -49.73803711 96.01586914 C-53.07951489 96.03287686 -56.42094692 96.04543333 -59.76245117 96.05493164 C-61.21070073 96.05997101 -62.65894517 96.06680253 -64.10717773 96.07543945 C-66.18474588 96.08752247 -68.26224697 96.09323211 -70.33984375 96.09765625 C-71.59144287 96.10289307 -72.84304199 96.10812988 -74.13256836 96.11352539 C-77 96 -77 96 -78 95 C-78 89.39 -78 83.78 -78 78 C-62.49 78 -46.98 78 -31 78 C-31 62.49 -31 46.98 -31 31 C-26.05 31 -21.1 31 -16 31 C-16.020625 28.710625 -16.04125 26.42125 -16.0625 24.0625 C-16.08370868 21.70833668 -16.07271741 19.35313555 -16 17 C-15 16 -15 16 -11.62109375 15.90234375 C-10.22652508 15.90808576 -8.83198403 15.92109772 -7.4375 15.9375 C-4.983125 15.958125 -2.52875 15.97875 0 16 C0 10.72 0 5.44 0 0 Z M1 1 C1 6.28 1 11.56 1 17 C-3.95 17 -8.9 17 -14 17 C-14 21.95 -14 26.9 -14 32 C-19.28 32 -24.56 32 -30 32 C-30 47.51 -30 63.02 -30 79 C-45.51 79 -61.02 79 -77 79 C-77 83.95 -77 88.9 -77 94 C-66.44 94 -55.88 94 -45 94 C-45 99.28 -45 104.56 -45 110 C-40.05 110 -35.1 110 -30 110 C-30 115.28 -30 120.56 -30 126 C-24.72 126 -19.44 126 -14 126 C-14 141.51 -14 157.02 -14 173 C-9.38 172.67 -4.76 172.34 0 172 C0.495 179.92 0.495 179.92 1 188 C6.28 188 11.56 188 17 188 C16.67 192.62 16.34 197.24 16 202 C11.05 202.33 6.1 202.66 1 203 C1 208.28 1 213.56 1 219 C5.95 219 10.9 219 16 219 C15.93489583 222.58072917 15.86979167 226.16145833 15.8046875 229.7421875 C15.64358476 233.08593338 15.64358476 233.08593338 18 235 C21.11038944 235.27904629 21.11038944 235.27904629 24.7578125 235.1953125 C25.42086395 235.1924826 26.08391541 235.18965271 26.76705933 235.18673706 C28.88655583 235.17553435 31.00563104 235.15043051 33.125 235.125 C34.56119182 235.11497028 35.99739025 235.10584441 37.43359375 235.09765625 C40.95602238 235.07729539 44.47753917 235.0381494 48 235 C48 239.95 48 244.9 48 250 C52.95 250 57.9 250 63 250 C63 255.28 63 260.56 63 266 C58.05 266 53.1 266 48 266 C47.67 270.62 47.34 275.24 47 280 C42.05 280.33 37.1 280.66 32 281 C32 286.28 32 291.56 32 297 C37.28 297 42.56 297 48 297 C48 292.05 48 287.1 48 282 C58.23 282 68.46 282 79 282 C78.67 286.62 78.34 291.24 78 296 C73.38 296.33 68.76 296.66 64 297 C64 302.28 64 307.56 64 313 C61.00520833 312.67447917 58.01041667 312.34895833 55.015625 312.0234375 C51.70422293 311.76942905 51.70422293 311.76942905 48 314 C48 323.24 48 332.48 48 342 C49.32 342.33 50.64 342.66 52 343 C51.34 345.97 50.68 348.94 50 352 C50.66 352 51.32 352 52 352 C51.67 353.65 51.34 355.3 51 357 C67.17 357 83.34 357 100 357 C100 357.33 100 357.66 100 358 C101.14339844 358 102.28679687 358 103.46484375 358 C107.9765625 358 112.48828125 358 117 358 C118.191698 357.88410522 118.191698 357.88410522 119.4074707 357.76586914 C128.06400762 356.97411674 136.51095705 357.0678214 145.1875 357.4375 C147.99329064 357.54497922 150.79930136 357.6450765 153.60546875 357.7421875 C154.30541962 357.76658401 155.00537048 357.79098053 155.72653198 357.81611633 C166.48113759 358.17085086 177.24123751 358.09086793 188 358 C188 357.34 188 356.68 188 356 C188.99 356.33 189.98 356.66 191 357 C194.9949265 357.30868466 198.99456491 357.32364827 203 357.375 C204.10601562 357.41238281 205.21203125 357.44976562 206.3515625 357.48828125 C207.94097656 357.50568359 207.94097656 357.50568359 209.5625 357.5234375 C210.53316406 357.54325684 211.50382812 357.56307617 212.50390625 357.58349609 C215.21065414 357.22294527 215.21065414 357.22294527 216.828125 354.70166016 C218.29458484 351.32085921 218.21047283 348.64819564 218 345 C218 343 218 341 218 339 C218.99 339 219.98 339 221 339 C221.46059814 339.48895752 221.92119629 339.97791504 222.39575195 340.48168945 C224.54320991 342.51411086 225.75230412 342.34868209 228.66796875 342.29296875 C229.56064453 342.28330078 230.45332031 342.27363281 231.37304688 342.26367188 C232.76620117 342.2259668 232.76620117 342.2259668 234.1875 342.1875 C235.59805664 342.16719727 235.59805664 342.16719727 237.03710938 342.14648438 C239.35865038 342.11113096 241.67903653 342.06178674 244 342 C244 341.34 244 340.68 244 340 C245.65 339.34 247.3 338.68 249 338 C249 335.36 249 332.72 249 330 C247.68 330 246.36 330 245 330 C244.67 328.68 244.34 327.36 244 326 C244.66 326 245.32 326 246 326 C246 325.01 246 324.02 246 323 C252.640625 324.82291667 252.640625 324.82291667 255.15625 326.0625 C259.22432594 327.40362394 263.06150485 327.21223431 267.3125 327.125 C268.56643555 327.11146484 268.56643555 327.11146484 269.84570312 327.09765625 C271.89725969 327.07420989 273.94866777 327.03834266 276 327 C276 325.35 276 323.7 276 322 C277.32 321.67 278.64 321.34 280 321 C280 318.69 280 316.38 280 314 C278.68 313.67 277.36 313.34 276 313 C276.66 311.35 277.32 309.7 278 308 C279.65 308 281.3 308 283 308 C283.33 308.99 283.66 309.98 284 311 C286.31 311 288.62 311 291 311 C291 310.34 291 309.68 291 309 C292.32 308.67 293.64 308.34 295 308 C295.33 304.7 295.66 301.4 296 298 C294.68 297.34 293.36 296.68 292 296 C292 294.68 292 293.36 292 292 C298.75 292.75 298.75 292.75 301 295 C304.58343976 295.16677282 304.58343976 295.16677282 308 295 C310.3890198 290.46661668 310.3890198 290.46661668 310.6875 285.5625 C310.460625 285.046875 310.23375 284.53125 310 284 C309.34 284 308.68 284 308 284 C308.309375 283.46375 308.61875 282.9275 308.9375 282.375 C310.17827439 279.6015043 310.5909675 276.99957163 311 274 C311.33 274.66 311.66 275.32 312 276 C313.32 276 314.64 276 316 276 C316 276.99 316 277.98 316 279 C318.64 279 321.28 279 324 279 C324 277.35 324 275.7 324 274 C324.99 274.33 325.98 274.66 327 275 C327 269.06 327 263.12 327 257 C326.34 257 325.68 257 325 257 C325 254.69 325 252.38 325 250 C331.27 250 337.54 250 344 250 C344 229.54 344 209.08 344 188 C339.05 188 334.1 188 329 188 C329 177.77 329 167.54 329 157 C293.03 157 257.06 157 220 157 C220 152.05 220 147.1 220 142 C219.01033274 140.78995168 219.01033274 140.78995168 217.09544373 140.87974548 C216.26271439 140.88196609 215.42998505 140.88418671 214.57202148 140.88647461 C213.63112167 140.88655014 212.69022186 140.88662567 211.72080994 140.88670349 C210.69790359 140.89186478 209.67499725 140.89702606 208.62109375 140.90234375 C207.57929459 140.9037587 206.53749542 140.90517365 205.46412659 140.90663147 C202.12188906 140.9122492 198.77971743 140.9248047 195.4375 140.9375 C193.17773534 140.94251272 190.91796963 140.94707602 188.65820312 140.95117188 C183.10544318 140.96222439 177.55273278 140.9795009 172 141 C172 136.05 172 131.1 172 126 C161.77 126 151.54 126 141 126 C141 115.77 141 105.54 141 95 C136.05 95 131.1 95 126 95 C126 74.54 126 54.08 126 33 C120.72 33 115.44 33 110 33 C110 27.72 110 22.44 110 17 C105.05 17 100.1 17 95 17 C95 11.72 95 6.44 95 1 C63.98 1 32.96 1 1 1 Z " fill="#D1A16F" transform="translate(108,62)"/>
<path d="M0 0 C12.36918715 -0.02312154 24.73836919 -0.04091412 37.10757351 -0.05181217 C42.85045062 -0.05704141 48.59331301 -0.0641398 54.33618164 -0.07543945 C59.87339995 -0.08626687 65.41060404 -0.09227652 70.94783211 -0.09487724 C73.06544277 -0.09673176 75.18305262 -0.10035286 77.30065727 -0.10573006 C80.25571274 -0.11293856 83.21070871 -0.11399102 86.16577148 -0.11352539 C87.05049637 -0.11712067 87.93522125 -0.12071594 88.84675598 -0.12442017 C94.88594784 -0.11405216 94.88594784 -0.11405216 96 1 C96.07313567 3.53049402 96.09247527 6.03304837 96.0625 8.5625 C96.05798828 9.27341797 96.05347656 9.98433594 96.04882812 10.71679688 C96.03700864 12.47790013 96.01907263 14.23896036 96 16 C97.60681641 15.98259766 97.60681641 15.98259766 99.24609375 15.96484375 C100.64322743 15.95546701 102.04036299 15.94636669 103.4375 15.9375 C104.14455078 15.92912109 104.85160156 15.92074219 105.58007812 15.91210938 C107.38693559 15.90346412 109.19387603 15.94779989 111 16 C112 17 112 17 112.09765625 20.16015625 C112.06510417 23.7734375 112.03255208 27.38671875 112 31 C116.95 31 121.9 31 127 31 C127 51.46 127 71.92 127 93 C131.62 93 136.24 93 141 93 C143 95 143 95 143.22705078 97.88916016 C143.21134033 99.69586182 143.21134033 99.69586182 143.1953125 101.5390625 C143.18564453 103.49199219 143.18564453 103.49199219 143.17578125 105.484375 C143.15906929 106.86458595 143.14213939 108.24479429 143.125 109.625 C143.11497006 111.01301452 143.10584423 112.40103589 143.09765625 113.7890625 C143.07401863 117.19288026 143.04106867 120.59635506 143 124 C143.90355225 123.99476318 144.80710449 123.98952637 145.73803711 123.98413086 C149.07951489 123.96712314 152.42094692 123.95456667 155.76245117 123.94506836 C157.21070073 123.94002899 158.65894517 123.93319747 160.10717773 123.92456055 C162.18474588 123.91247753 164.26224697 123.90676789 166.33984375 123.90234375 C167.59144287 123.89710693 168.84304199 123.89187012 170.13256836 123.88647461 C173 124 173 124 174 125 C174.07313567 127.53049402 174.09247527 130.03304837 174.0625 132.5625 C174.05798828 133.27341797 174.05347656 133.98433594 174.04882812 134.71679688 C174.03700864 136.47790013 174.01907263 138.23896036 174 140 C174.57407089 139.99777939 175.14814178 139.99555878 175.73960876 139.99327087 C181.6925291 139.97121743 187.6454379 139.95609316 193.59838867 139.94506836 C195.82267732 139.94002683 198.04696263 139.93319377 200.27124023 139.92456055 C203.46078309 139.91248702 206.65028229 139.90677004 209.83984375 139.90234375 C210.84087631 139.89718246 211.84190887 139.89202118 212.87327576 139.88670349 C213.79415482 139.88662796 214.71503387 139.88655243 215.66381836 139.88647461 C216.47878281 139.884254 217.29374725 139.88203339 218.13340759 139.87974548 C220 140 220 140 221 141 C221 145.95 221 150.9 221 156 C256.97 156 292.94 156 330 156 C330 166.23 330 176.46 330 187 C334.95 187 339.9 187 345 187 C345 208.12 345 229.24 345 251 C338.25 252.125 338.25 252.125 334.125 251.5625 C332.95324219 251.40974609 332.95324219 251.40974609 331.7578125 251.25390625 C331.17773438 251.17011719 330.59765625 251.08632813 330 251 C330.00785522 252.40076782 330.00785522 252.40076782 330.01586914 253.82983398 C330.0328762 257.28312796 330.04543302 260.73637767 330.05493164 264.18969727 C330.05997121 265.68644918 330.06680287 267.18319616 330.07543945 268.67993164 C330.08752159 270.82699807 330.09323191 272.97399962 330.09765625 275.12109375 C330.10551147 277.06133423 330.10551147 277.06133423 330.11352539 279.04077148 C330 282 330 282 329 283 C326.4672235 283.07320163 323.96896082 283.09227569 321.4375 283.0625 C318.983125 283.041875 316.52875 283.02125 314 283 C314 287.95 314 292.9 314 298 C309.05 298 304.1 298 299 298 C299.0309375 301.4340625 299.0309375 301.4340625 299.0625 304.9375 C299.08370868 307.29166332 299.07271741 309.64686445 299 312 C298 313 298 313 294.62109375 313.09765625 C293.22652508 313.09191424 291.83198403 313.07890228 290.4375 313.0625 C287.983125 313.041875 285.52875 313.02125 283 313 C283 318.28 283 323.56 283 329 C272.77 329 262.54 329 252 329 C252 333.95 252 338.9 252 344 C251 345 251 345 248.13256836 345.11352539 C246.88096924 345.10828857 245.62937012 345.10305176 244.33984375 345.09765625 C243.34314415 345.09553383 243.34314415 345.09553383 242.3263092 345.09336853 C240.19666101 345.08775518 238.06711661 345.07520054 235.9375 345.0625 C234.49674631 345.05748671 233.05599097 345.05292351 231.61523438 345.04882812 C228.07675042 345.03863076 224.53849187 345.0190583 221 345 C221 349.95 221 354.9 221 360 C210.44 360 199.88 360 189 360 C189 369.57 189 379.14 189 389 C193.89153471 388.9604321 193.89153471 388.9604321 198.78295898 388.90991211 C200.52221717 388.90275087 202.26145304 388.94975298 204 389 C205.82116003 390.82116003 205.1323508 393.30671764 205.13671875 395.7265625 C205.13285156 396.47679687 205.12898438 397.22703125 205.125 398 C205.12886719 398.75023437 205.13273437 399.50046875 205.13671875 400.2734375 C205.12661053 405.87338947 205.12661053 405.87338947 204 407 C202.03630847 407.0940067 200.06920801 407.11743381 198.10327148 407.11352539 C196.84203964 407.11344986 195.5808078 407.11337433 194.28135681 407.11329651 C192.89460206 407.1081891 191.50784771 407.10297309 190.12109375 407.09765625 C188.71004791 407.09579201 187.29900143 407.09436814 185.88795471 407.09336853 C182.16759465 407.08954379 178.4472734 407.0797139 174.72692871 407.06866455 C170.93319219 407.05844948 167.13944942 407.05387071 163.34570312 407.04882812 C155.89711769 407.03809158 148.44856428 407.0210157 141 407 C139.16742493 392.66515014 139.16742493 392.66515014 141 389 C145.95 389 150.9 389 156 389 C156 379.43 156 369.86 156 360 C146.43 360 136.86 360 127 360 C127.01160156 363.30902344 127.02320313 366.61804688 127.03515625 370.02734375 C127.04294581 373.21769108 127.04902314 376.40803737 127.05493164 379.59838867 C127.05997317 381.82267732 127.06680623 384.04696263 127.07543945 386.27124023 C127.08751298 389.46078309 127.09322996 392.65028229 127.09765625 395.83984375 C127.10539818 397.34139259 127.10539818 397.34139259 127.11329651 398.87327576 C127.11337204 399.79415482 127.11344757 400.71503387 127.11352539 401.66381836 C127.115746 402.47878281 127.11796661 403.29374725 127.12025452 404.13340759 C127 406 127 406 126 407 C124.04175302 407.09925773 122.07990103 407.12799414 120.11914062 407.12939453 C118.86113647 407.13254669 117.60313232 407.13569885 116.30700684 407.13894653 C114.92342087 407.13715675 113.53983522 407.1351058 112.15625 407.1328125 C110.74759911 407.13348559 109.33894834 407.13445565 107.93029785 407.13571167 C104.97451677 407.13718842 102.01876586 407.13503483 99.06298828 407.13037109 C95.26625416 407.12467381 91.46959072 407.12795293 87.67285919 407.13394356 C84.76303572 407.13754979 81.85322912 407.1364103 78.94340515 407.13381577 C77.543106 407.13314667 76.14280533 407.13397432 74.74250793 407.13629532 C72.78862536 407.13882283 70.83473745 407.13429033 68.88085938 407.12939453 C67.76690796 407.12859894 66.65295654 407.12780334 65.50524902 407.12698364 C63 407 63 407 62 406 C61.90002358 403.50941086 61.86120373 401.05272605 61.875 398.5625 C61.87113281 397.86833984 61.86726562 397.17417969 61.86328125 396.45898438 C61.87336006 391.25327988 61.87336006 391.25327988 63 389 C73.23 389 83.46 389 94 389 C94 379.43 94 369.86 94 360 C78.49 360 62.98 360 47 360 C47 355.05 47 350.1 47 345 C42.10846529 345.0395679 42.10846529 345.0395679 37.21704102 345.09008789 C35.47778283 345.09724913 33.73854696 345.05024702 32 345 C31 344 31 344 30.90234375 340.62109375 C30.90901631 339.22652923 30.92097468 337.83198257 30.9375 336.4375 C30.94201172 335.72658203 30.94652344 335.01566406 30.95117188 334.28320312 C30.96299136 332.52209987 30.98092737 330.76103964 31 329 C29.39318359 329.01740234 29.39318359 329.01740234 27.75390625 329.03515625 C26.35677257 329.04453299 24.95963701 329.05363331 23.5625 329.0625 C22.85544922 329.07087891 22.14839844 329.07925781 21.41992188 329.08789062 C19.61306441 329.09653588 17.80612397 329.05220011 16 329 C15 328 15 328 14.88647461 325.13256836 C14.89432983 323.25516968 14.89432983 323.25516968 14.90234375 321.33984375 C14.9037587 320.67537735 14.90517365 320.01091095 14.90663147 319.3263092 C14.91224482 317.19666101 14.92479946 315.06711661 14.9375 312.9375 C14.94251329 311.49674631 14.94707649 310.05599097 14.95117188 308.61523438 C14.96136924 305.07675042 14.9809417 301.53849187 15 298 C10.05 298 5.1 298 0 298 C0 282.49 0 266.98 0 251 C-4.95 251 -9.9 251 -15 251 C-16 250 -16 250 -16.12304783 248.20589352 C-16.12166514 247.02369401 -16.12166514 247.02369401 -16.12025452 245.81761169 C-16.12162918 244.91592255 -16.12300385 244.0142334 -16.12442017 243.08522034 C-16.11902725 241.58981972 -16.11902725 241.58981972 -16.11352539 240.06420898 C-16.11367142 239.02043091 -16.11381744 237.97665283 -16.1139679 236.90124512 C-16.11326826 233.43284057 -16.10547353 229.96448897 -16.09765625 226.49609375 C-16.09579225 224.09855682 -16.09436826 221.7010195 -16.09336853 219.30348206 C-16.08954194 212.97904416 -16.07971046 206.65462906 -16.06866455 200.3302002 C-16.05845345 193.88224598 -16.05387156 187.43428809 -16.04882812 180.98632812 C-16.03808832 168.32420871 -16.02101021 155.66210625 -16 143 C-20.95 142.67 -25.9 142.34 -31 142 C-31 137.05 -31 132.1 -31 127 C-35.89153471 127.0395679 -35.89153471 127.0395679 -40.78295898 127.09008789 C-42.52221717 127.09724913 -44.26145304 127.05024702 -46 127 C-47 126 -47 126 -47.11352539 123.13256836 C-47.10828857 121.88096924 -47.10305176 120.62937012 -47.09765625 119.33984375 C-47.0962413 118.67537735 -47.09482635 118.01091095 -47.09336853 117.3263092 C-47.08775518 115.19666101 -47.07520054 113.06711661 -47.0625 110.9375 C-47.05748671 109.49674631 -47.05292351 108.05599097 -47.04882812 106.61523438 C-47.03778145 103.07678898 -47.02050792 99.53840461 -47 96 C-47.90355225 96.00523682 -48.80710449 96.01047363 -49.73803711 96.01586914 C-53.07951489 96.03287686 -56.42094692 96.04543333 -59.76245117 96.05493164 C-61.21070073 96.05997101 -62.65894517 96.06680253 -64.10717773 96.07543945 C-66.18474588 96.08752247 -68.26224697 96.09323211 -70.33984375 96.09765625 C-71.59144287 96.10289307 -72.84304199 96.10812988 -74.13256836 96.11352539 C-77 96 -77 96 -78 95 C-78 89.39 -78 83.78 -78 78 C-62.49 78 -46.98 78 -31 78 C-31 62.49 -31 46.98 -31 31 C-26.05 31 -21.1 31 -16 31 C-16.020625 28.710625 -16.04125 26.42125 -16.0625 24.0625 C-16.08370868 21.70833668 -16.07271741 19.35313555 -16 17 C-15 16 -15 16 -11.62109375 15.90234375 C-10.22652508 15.90808576 -8.83198403 15.92109772 -7.4375 15.9375 C-4.983125 15.958125 -2.52875 15.97875 0 16 C0 10.72 0 5.44 0 0 Z M1 1 C1 6.28 1 11.56 1 17 C-3.95 17 -8.9 17 -14 17 C-14 21.95 -14 26.9 -14 32 C-19.28 32 -24.56 32 -30 32 C-30 47.51 -30 63.02 -30 79 C-45.51 79 -61.02 79 -77 79 C-77 83.95 -77 88.9 -77 94 C-66.44 94 -55.88 94 -45 94 C-45 99.28 -45 104.56 -45 110 C-40.05 110 -35.1 110 -30 110 C-30 115.28 -30 120.56 -30 126 C-24.72 126 -19.44 126 -14 126 C-14 166.92 -14 207.84 -14 250 C-9.05 250 -4.1 250 1 250 C1 265.51 1 281.02 1 297 C6.28 297 11.56 297 17 297 C17 307.23 17 317.46 17 328 C22.28 328 27.56 328 33 328 C33 332.95 33 337.9 33 343 C37.95 343 42.9 343 48 343 C48 348.28 48 353.56 48 359 C104.43 359 160.86 359 219 359 C219 353.72 219 348.44 219 343 C229.23 343 239.46 343 250 343 C250 338.05 250 333.1 250 328 C260.56 328 271.12 328 282 328 C282 322.72 282 317.44 282 312 C286.95 312 291.9 312 297 312 C297 307.05 297 302.1 297 297 C302.28 297 307.56 297 313 297 C313 291.72 313 286.44 313 281 C317.95 281 322.9 281 328 281 C328 270.77 328 260.54 328 250 C333.28 250 338.56 250 344 250 C344 229.54 344 209.08 344 188 C339.05 188 334.1 188 329 188 C329 177.77 329 167.54 329 157 C293.03 157 257.06 157 220 157 C220 152.05 220 147.1 220 142 C219.01033274 140.78995168 219.01033274 140.78995168 217.09544373 140.87974548 C216.26271439 140.88196609 215.42998505 140.88418671 214.57202148 140.88647461 C213.63112167 140.88655014 212.69022186 140.88662567 211.72080994 140.88670349 C210.69790359 140.89186478 209.67499725 140.89702606 208.62109375 140.90234375 C207.57929459 140.9037587 206.53749542 140.90517365 205.46412659 140.90663147 C202.12188906 140.9122492 198.77971743 140.9248047 195.4375 140.9375 C193.17773534 140.94251272 190.91796963 140.94707602 188.65820312 140.95117188 C183.10544318 140.96222439 177.55273278 140.9795009 172 141 C172 136.05 172 131.1 172 126 C161.77 126 151.54 126 141 126 C141 115.77 141 105.54 141 95 C136.05 95 131.1 95 126 95 C126 74.54 126 54.08 126 33 C120.72 33 115.44 33 110 33 C110 27.72 110 22.44 110 17 C105.05 17 100.1 17 95 17 C95 11.72 95 6.44 95 1 C63.98 1 32.96 1 1 1 Z " fill="#4B2E28" transform="translate(108,62)"/>
<path d="M0 0 C4.95 0 9.9 0 15 0 C17.24103151 4.48206302 16 9.98890121 16 15 C26.23 15 36.46 15 47 15 C47 20.28 47 25.56 47 31 C77.69 31 108.38 31 140 31 C140 26.38 140 21.76 140 17 C140.33 16.34 140.66 15.68 141 15 C156.18 15 171.36 15 187 15 C187 20.28 187 25.56 187 31 C181.72 31 176.44 31 171 31 C171 36.28 171 41.56 171 47 C166.05 47 161.1 47 156 47 C156 52.28 156 57.56 156 63 C120.03 63 84.06 63 47 63 C47 57.72 47 52.44 47 47 C36.77 47 26.54 47 16 47 C15.67 42.05 15.34 37.1 15 32 C10.05 31.67 5.1 31.34 0 31 C-0.1964607 27.52113433 -0.38239947 24.04222007 -0.5625 20.5625 C-0.61857422 19.58861328 -0.67464844 18.61472656 -0.73242188 17.61132812 C-1.0343548 11.59279841 -0.83345928 5.97003796 0 0 Z " fill="#D49D66" transform="translate(187,281)"/>
<path d="M0 0 C31.02 0 62.04 0 94 0 C94 5.28 94 10.56 94 16 C93.67 16 93.34 16 93 16 C93 11.05 93 6.1 93 1 C88.05 1 83.1 1 78 1 C78 5.62 78 10.24 78 15 C73.53794887 17.23102556 66.78092876 16.04346299 62 16 C62 20.95 62 25.9 62 31 C57.05 31 52.1 31 47 31 C47 26.05 47 21.1 47 16 C36.44 16 25.88 16 15 16 C15 20.95 15 25.9 15 31 C10.05 31 5.1 31 0 31 C0.0395679 35.89153471 0.0395679 35.89153471 0.09008789 40.78295898 C0.09724913 42.52221717 0.05024702 44.26145304 0 46 C-1 47 -1 47 -3.86743164 47.11352539 C-5.11903076 47.10828857 -6.37062988 47.10305176 -7.66015625 47.09765625 C-8.65685585 47.09553383 -8.65685585 47.09553383 -9.6736908 47.09336853 C-11.80333899 47.08775518 -13.93288339 47.07520054 -16.0625 47.0625 C-17.50325369 47.05748671 -18.94400903 47.05292351 -20.38476562 47.04882812 C-23.92324958 47.03863076 -27.46150813 47.0190583 -31 47 C-31 41.72 -31 36.44 -31 31 C-25.72 31 -20.44 31 -15 31 C-15 26.05 -15 21.1 -15 16 C-10.05 16 -5.1 16 0 16 C0 10.72 0 5.44 0 0 Z " fill="#DEA772" transform="translate(109,63)"/>
<path d="M0 0 C31.35 0 62.7 0 95 0 C95 0.33 95 0.66 95 1 C63.98 1 32.96 1 1 1 C1 6.28 1 11.56 1 17 C-3.95 17 -8.9 17 -14 17 C-14 21.95 -14 26.9 -14 32 C-19.28 32 -24.56 32 -30 32 C-30 47.51 -30 63.02 -30 79 C-45.51 79 -61.02 79 -77 79 C-77 83.95 -77 88.9 -77 94 C-66.44 94 -55.88 94 -45 94 C-45 99.28 -45 104.56 -45 110 C-40.05 110 -35.1 110 -30 110 C-30 115.28 -30 120.56 -30 126 C-24.72 126 -19.44 126 -14 126 C-14 166.92 -14 207.84 -14 250 C-9.05 250 -4.1 250 1 250 C1 265.51 1 281.02 1 297 C6.28 297 11.56 297 17 297 C17 307.23 17 317.46 17 328 C22.28 328 27.56 328 33 328 C33 332.95 33 337.9 33 343 C37.95 343 42.9 343 48 343 C48 343.33 48 343.66 48 344 C42.39 344 36.78 344 31 344 C31 339.05 31 334.1 31 329 C26.10846529 329.0395679 26.10846529 329.0395679 21.21704102 329.09008789 C19.47778283 329.09724913 17.73854696 329.05024702 16 329 C15 328 15 328 14.88647461 325.13256836 C14.89432983 323.25516968 14.89432983 323.25516968 14.90234375 321.33984375 C14.9037587 320.67537735 14.90517365 320.01091095 14.90663147 319.3263092 C14.91224482 317.19666101 14.92479946 315.06711661 14.9375 312.9375 C14.94251329 311.49674631 14.94707649 310.05599097 14.95117188 308.61523438 C14.96136924 305.07675042 14.9809417 301.53849187 15 298 C10.05 298 5.1 298 0 298 C0 282.49 0 266.98 0 251 C-4.95 251 -9.9 251 -15 251 C-16 250 -16 250 -16.12304783 248.20589352 C-16.12166514 247.02369401 -16.12166514 247.02369401 -16.12025452 245.81761169 C-16.12162918 244.91592255 -16.12300385 244.0142334 -16.12442017 243.08522034 C-16.11902725 241.58981972 -16.11902725 241.58981972 -16.11352539 240.06420898 C-16.11367142 239.02043091 -16.11381744 237.97665283 -16.1139679 236.90124512 C-16.11326826 233.43284057 -16.10547353 229.96448897 -16.09765625 226.49609375 C-16.09579225 224.09855682 -16.09436826 221.7010195 -16.09336853 219.30348206 C-16.08954194 212.97904416 -16.07971046 206.65462906 -16.06866455 200.3302002 C-16.05845345 193.88224598 -16.05387156 187.43428809 -16.04882812 180.98632812 C-16.03808832 168.32420871 -16.02101021 155.66210625 -16 143 C-20.95 142.67 -25.9 142.34 -31 142 C-31 137.05 -31 132.1 -31 127 C-35.89153471 127.0395679 -35.89153471 127.0395679 -40.78295898 127.09008789 C-42.52221717 127.09724913 -44.26145304 127.05024702 -46 127 C-47 126 -47 126 -47.11352539 123.13256836 C-47.10828857 121.88096924 -47.10305176 120.62937012 -47.09765625 119.33984375 C-47.0962413 118.67537735 -47.09482635 118.01091095 -47.09336853 117.3263092 C-47.08775518 115.19666101 -47.07520054 113.06711661 -47.0625 110.9375 C-47.05748671 109.49674631 -47.05292351 108.05599097 -47.04882812 106.61523438 C-47.03778145 103.07678898 -47.02050792 99.53840461 -47 96 C-47.90355225 96.00523682 -48.80710449 96.01047363 -49.73803711 96.01586914 C-53.07951489 96.03287686 -56.42094692 96.04543333 -59.76245117 96.05493164 C-61.21070073 96.05997101 -62.65894517 96.06680253 -64.10717773 96.07543945 C-66.18474588 96.08752247 -68.26224697 96.09323211 -70.33984375 96.09765625 C-71.59144287 96.10289307 -72.84304199 96.10812988 -74.13256836 96.11352539 C-77 96 -77 96 -78 95 C-78 89.39 -78 83.78 -78 78 C-62.49 78 -46.98 78 -31 78 C-31 62.49 -31 46.98 -31 31 C-26.05 31 -21.1 31 -16 31 C-16.020625 28.710625 -16.04125 26.42125 -16.0625 24.0625 C-16.08370868 21.70833668 -16.07271741 19.35313555 -16 17 C-15 16 -15 16 -11.62109375 15.90234375 C-10.22652508 15.90808576 -8.83198403 15.92109772 -7.4375 15.9375 C-4.983125 15.958125 -2.52875 15.97875 0 16 C0 10.72 0 5.44 0 0 Z " fill="#472F2A" transform="translate(108,62)"/>
<path d="M0 0 C15.51 0 31.02 0 47 0 C47 10.23 47 20.46 47 31 C42.05 31 37.1 31 32 31 C32 25.72 32 20.44 32 15 C21.44 15 10.88 15 0 15 C0 10.05 0 5.1 0 0 Z " fill="#DD8042" transform="translate(31,141)"/>
<path d="M0 0 C0.99 0 1.98 0 3 0 C3 10.23 3 20.46 3 31 C-1.95 31 -6.9 31 -12 31 C-12 36.28 -12 41.56 -12 47 C-17.28 47 -22.56 47 -28 47 C-28 51.95 -28 56.9 -28 62 C-32.95 62 -37.9 62 -43 62 C-43 67.28 -43 72.56 -43 78 C-53.56 78 -64.12 78 -75 78 C-75 82.95 -75 87.9 -75 93 C-85.23 93 -95.46 93 -106 93 C-106 98.28 -106 103.56 -106 109 C-162.43 109 -218.86 109 -277 109 C-277 104.05 -277 99.1 -277 94 C-276.67 94 -276.34 94 -276 94 C-276 98.62 -276 103.24 -276 108 C-274.01637451 107.96970703 -272.03274902 107.93941406 -269.98901367 107.90820312 C-263.43915939 107.8082303 -256.88930193 107.70846755 -250.33944225 107.60884857 C-246.36781317 107.54843505 -242.39618541 107.48793687 -238.42456055 107.42724609 C-234.59259143 107.36869251 -230.76061901 107.31036017 -226.92864418 107.25218201 C-225.46580192 107.22993367 -224.00296088 107.20760526 -222.54012108 107.18519592 C-220.49314051 107.1538517 -218.44615582 107.12279072 -216.39916992 107.09179688 C-215.23334885 107.07403198 -214.06752777 107.05626709 -212.86637878 107.03796387 C-210.91104974 107.01206643 -208.95550054 107 -207 107 C-205.22572091 106.83160499 -203.45202773 106.65700321 -201.67871094 106.47875977 C-194.79649203 105.89431204 -188.03477877 106.06042645 -181.140625 106.33984375 C-179.87023376 106.38565079 -178.59984253 106.43145782 -177.29095459 106.47865295 C-173.956875 106.60013706 -170.6231502 106.72773515 -167.28942871 106.85845947 C-163.87022955 106.99097467 -160.45073046 107.11522799 -157.03125 107.24023438 C-150.35386908 107.48598498 -143.67683336 107.7398181 -137 108 C-137 107.34 -137 106.68 -137 106 C-128.09 106 -119.18 106 -110 106 C-108.10013588 102.20027176 -107.69190843 101.00519045 -108 97 C-108.33 96.01 -108.66 95.02 -109 94 C-108.0625 90.8125 -108.0625 90.8125 -107 88 C-105.68 88 -104.36 88 -103 88 C-103 88.99 -103 89.98 -103 91 C-92.11 91.495 -92.11 91.495 -81 92 C-81 91.34 -81 90.68 -81 90 C-80.34 90 -79.68 90 -79 90 C-78.67 89.01 -78.34 88.02 -78 87 C-77.67 87.33 -77.34 87.66 -77 88 C-77 85.69 -77 83.38 -77 81 C-77.99 80.67 -78.98 80.34 -80 80 C-80.6875 77.9375 -80.6875 77.9375 -81 76 C-80.34 76 -79.68 76 -79 76 C-79 75.01 -79 74.02 -79 73 C-76.69 73 -74.38 73 -72 73 C-71.67 73.66 -71.34 74.32 -71 75 C-68.24294631 75.93116296 -65.56560237 76.17171988 -62.671875 76.31640625 C-61.87265625 76.35830078 -61.0734375 76.40019531 -60.25 76.44335938 C-59.425 76.48267578 -58.6 76.52199219 -57.75 76.5625 C-56.48929687 76.62727539 -56.48929687 76.62727539 -55.203125 76.69335938 C-53.13559329 76.79908543 -51.06781719 76.90001295 -49 77 C-49 75.35 -49 73.7 -49 72 C-48.01 71.67 -47.02 71.34 -46 71 C-46 68.69 -46 66.38 -46 64 C-46.99 63.67 -47.98 63.34 -49 63 C-48.67 61.35 -48.34 59.7 -48 58 C-43.25 57 -43.25 57 -41 57 C-41 58.32 -41 59.64 -41 61 C-38.02934491 60.65772428 -38.02934491 60.65772428 -35 60 C-34.67 59.34 -34.34 58.68 -34 58 C-32.68 58 -31.36 58 -30 58 C-29.91909029 56.37581255 -29.86085005 54.75048255 -29.8125 53.125 C-29.77769531 52.22007812 -29.74289062 51.31515625 -29.70703125 50.3828125 C-29.80371094 49.59648437 -29.90039062 48.81015625 -30 48 C-30.99 47.34 -31.98 46.68 -33 46 C-33 44.68 -33 43.36 -33 42 C-30.6875 41.375 -30.6875 41.375 -28 41 C-25 43 -25 43 -24 44 C-21.67182036 44.36760731 -19.3381615 44.70241581 -17 45 C-17.061875 43.824375 -17.061875 43.824375 -17.125 42.625 C-17 40 -17 40 -15 38 C-15 37.01 -15 36.02 -15 35 C-15.66 34.67 -16.32 34.34 -17 34 C-16.34 30.7 -15.68 27.4 -15 24 C-12 24 -12 24 -9 26 C-9 26.99 -9 27.98 -9 29 C-6.36 29 -3.72 29 -1 29 C-1 27.35 -1 25.7 -1 24 C-0.34 24 0.32 24 1 24 C1.33 18.39 1.66 12.78 2 7 C0.515 7.495 0.515 7.495 -1 8 C-1.125 2.25 -1.125 2.25 0 0 Z " fill="#D0A173" transform="translate(433,312)"/>
<path d="M0 0 C4.95 0 9.9 0 15 0 C15 10.23 15 20.46 15 31 C4.77 31 -5.46 31 -16 31 C-16 26.05 -16 21.1 -16 16 C-10.72 16 -5.44 16 0 16 C0 10.72 0 5.44 0 0 Z " fill="#050202" transform="translate(141,125)"/>
<path d="M0 0 C10.23 0 20.46 0 31 0 C31.33 4.95 31.66 9.9 32 15 C32.495 15.99 32.495 15.99 33 17 C32.34 17.99 31.68 18.98 31 20 C31 18.68 31 17.36 31 16 C29.22880197 16.14133499 27.45804713 16.28823208 25.6875 16.4375 C24.70136719 16.51871094 23.71523437 16.59992188 22.69921875 16.68359375 C19.90624401 16.91812559 19.90624401 16.91812559 17 18 C16.67 22.29 16.34 26.58 16 31 C15.67 31 15.34 31 15 31 C15 26.05 15 21.1 15 16 C10.05 16 5.1 16 0 16 C0 10.72 0 5.44 0 0 Z " fill="#E2AB73" transform="translate(187,359)"/>
<path d="M0 0 C0 5.61 0 11.22 0 17 C1.32 17.33 2.64 17.66 4 18 C3.01 18.33 2.02 18.66 1 19 C0.93941406 19.85464844 0.87882812 20.70929688 0.81640625 21.58984375 C0.73261719 22.69457031 0.64882812 23.79929687 0.5625 24.9375 C0.48128906 26.03964844 0.40007812 27.14179688 0.31640625 28.27734375 C0 31 0 31 -1 32 C-3.35313555 32.07271741 -5.70833668 32.08370868 -8.0625 32.0625 C-9.35285156 32.05347656 -10.64320312 32.04445313 -11.97265625 32.03515625 C-12.97167969 32.02355469 -13.97070312 32.01195312 -15 32 C-15.02465622 27.74585377 -15.04283899 23.49174502 -15.05493164 19.23754883 C-15.05997101 17.78929927 -15.06680253 16.34105483 -15.07543945 14.89282227 C-15.08752247 12.81525412 -15.09323211 10.73775303 -15.09765625 8.66015625 C-15.10289307 7.40855713 -15.10812988 6.15695801 -15.11352539 4.86743164 C-15 2 -15 2 -14 1 C-11.83801065 0.76462213 -9.66968335 0.58607614 -7.5 0.4375 C-6.3140625 0.35371094 -5.128125 0.26992187 -3.90625 0.18359375 C-1 0 -1 0 0 0 Z " fill="#C4986D" transform="translate(109,233)"/>
<path d="M0 0 C10.23 0 20.46 0 31 0 C31 10.56 31 21.12 31 32 C26.05 32 21.1 32 16 32 C15.67 32.99 15.34 33.98 15 35 C14.67 34.01 14.34 33.02 14 32 C14.33 31.34 14.66 30.68 15 30 C19.95 30 24.9 30 30 30 C30 20.43 30 10.86 30 1 C20.43 1 10.86 1 1 1 C1.01160156 4.30902344 1.02320313 7.61804688 1.03515625 11.02734375 C1.04294581 14.21769108 1.04902314 17.40803737 1.05493164 20.59838867 C1.05997317 22.82267732 1.06680623 25.04696263 1.07543945 27.27124023 C1.08751298 30.46078309 1.09322996 33.65028229 1.09765625 36.83984375 C1.10281754 37.84087631 1.10797882 38.84190887 1.11329651 39.87327576 C1.11337204 40.79415482 1.11344757 41.71503387 1.11352539 42.66381836 C1.115746 43.47878281 1.11796661 44.29374725 1.12025452 45.13340759 C1 47 1 47 0 48 C-1.95824698 48.09925773 -3.92009897 48.12799414 -5.88085938 48.12939453 C-7.7678656 48.13412277 -7.7678656 48.13412277 -9.69299316 48.13894653 C-11.07657913 48.13715675 -12.46016478 48.1351058 -13.84375 48.1328125 C-15.25240089 48.13348559 -16.66105166 48.13445565 -18.06970215 48.13571167 C-21.02548323 48.13718842 -23.98123414 48.13503483 -26.93701172 48.13037109 C-30.73374584 48.12467381 -34.53040928 48.12795293 -38.32714081 48.13394356 C-41.23696428 48.13754979 -44.14677088 48.1364103 -47.05659485 48.13381577 C-48.456894 48.13314667 -49.85719467 48.13397432 -51.25749207 48.13629532 C-53.21137464 48.13882283 -55.16526255 48.13429033 -57.11914062 48.12939453 C-58.23309204 48.12859894 -59.34704346 48.12780334 -60.49475098 48.12698364 C-63 48 -63 48 -64 47 C-64.09997642 44.50941086 -64.13879627 42.05272605 -64.125 39.5625 C-64.12886719 38.86833984 -64.13273438 38.17417969 -64.13671875 37.45898438 C-64.12663994 32.25327988 -64.12663994 32.25327988 -63 30 C-52.77 30 -42.54 30 -32 30 C-32 30.66 -32 31.32 -32 32 C-37.88400655 32.85695967 -43.55909292 33.12539234 -49.5 33.0625 C-50.32242188 33.05798828 -51.14484375 33.05347656 -51.9921875 33.04882812 C-53.99482396 33.03718489 -55.99742227 33.01925556 -58 33 C-58.53154742 34.60064843 -59.04988353 36.20568874 -59.5625 37.8125 C-59.85253906 38.70582031 -60.14257812 39.59914063 -60.44140625 40.51953125 C-61.24979556 43.11215139 -61.24979556 43.11215139 -60 46 C-58.515 45.505 -58.515 45.505 -57 45 C-55.27685812 44.9220031 -53.55076586 44.90288727 -51.82592773 44.91821289 C-50.77150986 44.9247438 -49.71709198 44.93127472 -48.63072205 44.93800354 C-46.92439354 44.95515663 -46.92439354 44.95515663 -45.18359375 44.97265625 C-42.7871108 44.98529821 -40.39062635 44.99765948 -37.99414062 45.00976562 C-34.20608914 45.03464326 -30.41811433 45.0626703 -26.63012695 45.09594727 C-22.98127736 45.12602866 -19.33252727 45.14388444 -15.68359375 45.16015625 C-14.54401718 45.17361588 -13.40444061 45.1870755 -12.23033142 45.20094299 C-11.1790657 45.20432175 -10.12779999 45.2077005 -9.04467773 45.21118164 C-8.11662827 45.21863907 -7.1885788 45.2260965 -6.23240662 45.23377991 C-3.79568954 45.21543282 -3.79568954 45.21543282 -2 43 C-0.38891191 33.81031363 -0.70351541 24.06401986 -0.4375 14.75 C-0.293125 9.8825 -0.14875 5.015 0 0 Z " fill="#35222A" transform="translate(234,421)"/>
<path d="M0 0 C4.95 0 9.9 0 15 0 C15 9.9 15 19.8 15 30 C10.05 30 5.1 30 0 30 C0 20.1 0 10.2 0 0 Z " fill="#E1A870" transform="translate(203,95)"/>
<path d="M0 0 C4.62 0 9.24 0 14 0 C14 9.9 14 19.8 14 30 C9.38 30 4.76 30 0 30 C0 20.1 0 10.2 0 0 Z " fill="#F4BC82" transform="translate(219,95)"/>
<path d="M0 0 C0.99 0 1.98 0 3 0 C3 10.23 3 20.46 3 31 C-1.95 31 -6.9 31 -12 31 C-12 36.28 -12 41.56 -12 47 C-17.28 47 -22.56 47 -28 47 C-28 51.95 -28 56.9 -28 62 C-32.95 62.33 -37.9 62.66 -43 63 C-43.33 67.62 -43.66 72.24 -44 77 C-45.65 77 -47.3 77 -49 77 C-49 75.35 -49 73.7 -49 72 C-47.515 71.505 -47.515 71.505 -46 71 C-46 68.69 -46 66.38 -46 64 C-46.99 63.67 -47.98 63.34 -49 63 C-48.67 61.35 -48.34 59.7 -48 58 C-43.25 57 -43.25 57 -41 57 C-41 58.32 -41 59.64 -41 61 C-38.02934491 60.65772428 -38.02934491 60.65772428 -35 60 C-34.67 59.34 -34.34 58.68 -34 58 C-32.68 58 -31.36 58 -30 58 C-29.91909029 56.37581255 -29.86085005 54.75048255 -29.8125 53.125 C-29.77769531 52.22007812 -29.74289062 51.31515625 -29.70703125 50.3828125 C-29.80371094 49.59648437 -29.90039062 48.81015625 -30 48 C-30.99 47.34 -31.98 46.68 -33 46 C-33 44.68 -33 43.36 -33 42 C-30.6875 41.375 -30.6875 41.375 -28 41 C-25 43 -25 43 -24 44 C-21.67182036 44.36760731 -19.3381615 44.70241581 -17 45 C-17.04125 44.21625 -17.0825 43.4325 -17.125 42.625 C-17 40 -17 40 -15 38 C-15 37.01 -15 36.02 -15 35 C-15.99 34.505 -15.99 34.505 -17 34 C-16.34 30.7 -15.68 27.4 -15 24 C-12 24 -12 24 -9 26 C-9 26.99 -9 27.98 -9 29 C-6.36 29 -3.72 29 -1 29 C-1 27.35 -1 25.7 -1 24 C-0.34 24 0.32 24 1 24 C1.33 18.39 1.66 12.78 2 7 C1.01 7.33 0.02 7.66 -1 8 C-1.125 2.25 -1.125 2.25 0 0 Z " fill="#D4A272" transform="translate(433,312)"/>
<path d="M0 0 C0.33 0 0.66 0 1 0 C1 4.95 1 9.9 1 15 C5.89153471 14.9604321 5.89153471 14.9604321 10.78295898 14.90991211 C12.52221717 14.90275087 14.26145304 14.94975298 16 15 C17 16 17 16 17.09765625 19.16015625 C17.06510417 22.7734375 17.03255208 26.38671875 17 30 C21.95 30 26.9 30 32 30 C32 50.46 32 70.92 32 92 C36.62 92 41.24 92 46 92 C48 94 48 94 48.22705078 96.88916016 C48.21657715 98.09362793 48.20610352 99.2980957 48.1953125 100.5390625 C48.19031738 101.71162598 48.18532227 102.88418945 48.18017578 104.09228516 C48.16196777 105.58808105 48.14375977 107.08387695 48.125 108.625 C48.08375 113.36875 48.0425 118.1125 48 123 C57.9 123 67.8 123 78 123 C78 128.61 78 134.22 78 140 C77.67 140 77.34 140 77 140 C77 135.05 77 130.1 77 125 C66.77 125 56.54 125 46 125 C46 114.77 46 104.54 46 94 C41.05 94 36.1 94 31 94 C31 73.54 31 53.08 31 32 C25.72 32 20.44 32 15 32 C15 26.72 15 21.44 15 16 C10.05 16 5.1 16 0 16 C0 10.72 0 5.44 0 0 Z " fill="#453530" transform="translate(203,63)"/>
<path d="M0 0 C4.95 0 9.9 0 15 0 C17.25 12.625 17.25 12.625 15 16 C12.35418391 16.22296203 10.00720498 16.28148752 7.375 16.1875 C4.94125 16.125625 2.5075 16.06375 0 16 C0 10.72 0 5.44 0 0 Z " fill="#623832" transform="translate(265,437)"/>
<path d="M0 0 C-0.99 0.495 -0.99 0.495 -2 1 C-1.98839844 1.92683594 -1.97679687 2.85367187 -1.96484375 3.80859375 C-1.95582031 5.00613281 -1.94679688 6.20367187 -1.9375 7.4375 C-1.92589844 8.63246094 -1.91429687 9.82742188 -1.90234375 11.05859375 C-2 14 -2 14 -3 15 C-5.53049402 15.07313567 -8.03304837 15.09247527 -10.5625 15.0625 C-11.27341797 15.05798828 -11.98433594 15.05347656 -12.71679688 15.04882812 C-14.47790013 15.03700864 -16.23896036 15.01907263 -18 15 C-18.22134176 12.87631556 -18.42670007 10.75095976 -18.625 8.625 C-18.74101562 7.44164062 -18.85703125 6.25828125 -18.9765625 5.0390625 C-18.98429687 4.03617187 -18.99203125 3.03328125 -19 2 C-14.34073212 -2.65926788 -5.99231159 -0.98056008 0 0 Z " fill="#E2AB73" transform="translate(408,297)"/>
<path d="M0 0 C4.95 0 9.9 0 15 0 C15.33 5.28 15.66 10.56 16 16 C10.72 16 5.44 16 0 16 C0 10.72 0 5.44 0 0 Z " fill="#D8A77A" transform="translate(78,172)"/>
<path d="M0 0 C2.26875 -0.061875 4.5375 -0.12375 6.875 -0.1875 C8.78925781 -0.23970703 8.78925781 -0.23970703 10.7421875 -0.29296875 C11.81726563 -0.19628906 12.89234375 -0.09960938 14 0 C17.2830098 4.9245147 16.11530805 10.17694327 16 16 C10.72 16 5.44 16 0 16 C0 10.72 0 5.44 0 0 Z " fill="#643831" transform="translate(203,436)"/>
<path d="M0 0 C3.3 0 6.6 0 10 0 C10 0.33 10 0.66 10 1 C7.36 1 4.72 1 2 1 C2.00523682 1.93384521 2.01047363 2.86769043 2.01586914 3.82983398 C2.0328762 7.28312796 2.04543302 10.73637767 2.05493164 14.18969727 C2.05997121 15.68644918 2.06680287 17.18319616 2.07543945 18.67993164 C2.08752159 20.82699807 2.09323191 22.97399962 2.09765625 25.12109375 C2.10289307 26.4145874 2.10812988 27.70808105 2.11352539 29.04077148 C2 32 2 32 1 33 C-1.5327765 33.07320163 -4.03103918 33.09227569 -6.5625 33.0625 C-9.016875 33.041875 -11.47125 33.02125 -14 33 C-14 37.95 -14 42.9 -14 48 C-18.95 48 -23.9 48 -29 48 C-28.979375 50.289375 -28.95875 52.57875 -28.9375 54.9375 C-28.91629132 57.29166332 -28.92728259 59.64686445 -29 62 C-30 63 -30 63 -33.37890625 63.09765625 C-34.77347492 63.09191424 -36.16801597 63.07890228 -37.5625 63.0625 C-40.016875 63.041875 -42.47125 63.02125 -45 63 C-45 68.28 -45 73.56 -45 79 C-55.56 79 -66.12 79 -77 79 C-77 83.62 -77 88.24 -77 93 C-77.33 93 -77.66 93 -78 93 C-78 88.05 -78 83.1 -78 78 C-67.44 78 -56.88 78 -46 78 C-46 72.72 -46 67.44 -46 62 C-41.05 62 -36.1 62 -31 62 C-31 57.05 -31 52.1 -31 47 C-25.72 47 -20.44 47 -15 47 C-15 41.72 -15 36.44 -15 31 C-10.05 31 -5.1 31 0 31 C0 20.77 0 10.54 0 0 Z " fill="#4F3B33" transform="translate(436,312)"/>
<path d="M0 0 C4.95 0 9.9 0 15 0 C15 5.28 15 10.56 15 16 C10.05 16 5.1 16 0 16 C0 10.72 0 5.44 0 0 Z " fill="#A73533" transform="translate(63,172)"/>
<path d="M0 0 C4.95 0 9.9 0 15 0 C15 5.28 15 10.56 15 16 C10.05 16 5.1 16 0 16 C0 10.72 0 5.44 0 0 Z " fill="#24211E" transform="translate(141,125)"/>
<path d="M0 0 C4.95 0 9.9 0 15 0 C15 5.28 15 10.56 15 16 C10.05 16 5.1 16 0 16 C0 10.72 0 5.44 0 0 Z " fill="#FEFEFE" transform="translate(125,125)"/>
<path d="M0 0 C0.33 0 0.66 0 1 0 C1 4.62 1 9.24 1 14 C3.97543823 13.95456055 3.97543823 13.95456055 7.01098633 13.90820312 C13.56084061 13.8082303 20.11069807 13.70846755 26.66055775 13.60884857 C30.63218683 13.54843505 34.60381459 13.48793687 38.57543945 13.42724609 C42.40740857 13.36869251 46.23938099 13.31036017 50.07135582 13.25218201 C51.53419808 13.22993367 52.99703912 13.20760526 54.45987892 13.18519592 C56.50685949 13.1538517 58.55384418 13.12279072 60.60083008 13.09179688 C61.76665115 13.07403198 62.93247223 13.05626709 64.13362122 13.03796387 C66.08895026 13.01206643 68.04449946 13 70 13 C71.78828748 12.83100835 73.57597837 12.6556678 75.36328125 12.4765625 C82.0177745 11.91381886 88.52296515 12.08614992 95.1875 12.375 C97.96216918 12.47922179 100.73674885 12.58038329 103.51171875 12.67578125 C104.67071182 12.71574471 104.67071182 12.71574471 105.8531189 12.7565155 C118.73141508 13.17823541 131.61697502 13.34745573 144.5 13.5625 C146.46155533 13.59558258 146.46155533 13.59558258 148.46273804 13.6293335 C155.97511198 13.75582369 163.48752631 13.87958064 171 14 C171 14.33 171 14.66 171 15 C114.57 15 58.14 15 0 15 C0 10.05 0 5.1 0 0 Z " fill="#BF9471" transform="translate(156,406)"/>
<path d="M0 0 C4.95 0 9.9 0 15 0 C16.125 11.625 16.125 11.625 15 15 C10.05 15 5.1 15 0 15 C0 10.05 0 5.1 0 0 Z " fill="#EFC295" transform="translate(156,328)"/>
<path d="M0 0 C4.95 0.33 9.9 0.66 15 1 C15 5.95 15 10.9 15 16 C10.05 16 5.1 16 0 16 C0 10.72 0 5.44 0 0 Z " fill="#C3986C" transform="translate(94,296)"/>
<path d="M0 0 C4.95 0 9.9 0 15 0 C15 4.95 15 9.9 15 15 C10.05 15 5.1 15 0 15 C0 10.05 0 5.1 0 0 Z " fill="#C79968" transform="translate(187,359)"/>
<path d="M0 0 C4.95 0 9.9 0 15 0 C15 4.95 15 9.9 15 15 C10.05 15 5.1 15 0 15 C0 10.05 0 5.1 0 0 Z " fill="#EEC295" transform="translate(141,344)"/>
<path d="M0 0 C4.95 0 9.9 0 15 0 C15 4.95 15 9.9 15 15 C10.05 15 5.1 15 0 15 C0 10.05 0 5.1 0 0 Z " fill="#EEC295" transform="translate(109,266)"/>
<path d="M0 0 C4.95 0 9.9 0 15 0 C15 4.95 15 9.9 15 15 C10.05 15 5.1 15 0 15 C0 10.05 0 5.1 0 0 Z " fill="#EEC295" transform="translate(109,235)"/>
<path d="M0 0 C4.95 0 9.9 0 15 0 C15 4.95 15 9.9 15 15 C10.05 15 5.1 15 0 15 C0 10.05 0 5.1 0 0 Z " fill="#A73434" transform="translate(78,188)"/>
<path d="M0 0 C4.95 0 9.9 0 15 0 C15 4.95 15 9.9 15 15 C10.05 15 5.1 15 0 15 C0 10.05 0 5.1 0 0 Z " fill="#1F1D1B" transform="translate(125,141)"/>
<path d="M0 0 C4.95 0 9.9 0 15 0 C15 4.95 15 9.9 15 15 C10.05 15 5.1 15 0 15 C0 10.05 0 5.1 0 0 Z " fill="#F3BC82" transform="translate(187,64)"/>
<path d="M0 0 C4.95 0 9.9 0 15 0 C15.09765625 10.83984375 15.09765625 10.83984375 15 14 C14 15 14 15 10.83984375 15.09765625 C7.2265625 15.06510417 3.61328125 15.03255208 0 15 C0 10.05 0 5.1 0 0 Z " fill="#D7AB7C" transform="translate(156,188)"/>
<path d="M0 0 C1.1859375 0.00257813 2.371875 0.00515625 3.59375 0.0078125 C4.7796875 0.00523437 5.965625 0.00265625 7.1875 0 C10.09375 0.1328125 10.09375 0.1328125 11.09375 1.1328125 C11.23801614 5.80126478 11.13583415 10.46147203 11.09375 15.1328125 C6.14375 15.1328125 1.19375 15.1328125 -3.90625 15.1328125 C-4.00390625 4.29296875 -4.00390625 4.29296875 -3.90625 1.1328125 C-2.90625 0.1328125 -2.90625 0.1328125 0 0 Z " fill="#C79969" transform="translate(144.90625,358.8671875)"/>
<path d="M0 0 C4.95 0 9.9 0 15 0 C15 4.95 15 9.9 15 15 C10.05 15 5.1 15 0 15 C0 10.05 0 5.1 0 0 Z " fill="#E2A970" transform="translate(187,79)"/>
<path d="M0 0 C9.9609375 -0.1953125 9.9609375 -0.1953125 13 0 C15 2 15 2 15.23046875 4.78515625 C15.20919922 6.40744141 15.20919922 6.40744141 15.1875 8.0625 C15.17783203 9.68865234 15.17783203 9.68865234 15.16796875 11.34765625 C15 14 15 14 14 15 C9.33154772 15.14426614 4.67134047 15.04208415 0 15 C0 10.05 0 5.1 0 0 Z " fill="#D6A87A" transform="translate(94,250)"/>
<path d="M0 0 C4.62 0 9.24 0 14 0 C14 4.95 14 9.9 14 15 C9.38 15 4.76 15 0 15 C0 10.05 0 5.1 0 0 Z " fill="#E0A970" transform="translate(219,126)"/>
<path d="M0 0 C35.97 0 71.94 0 109 0 C109.33 9.9 109.66 19.8 110 30 C111.98 30.33 113.96 30.66 116 31 C115.67 31.99 115.34 32.98 115 34 C113.22265625 34.765625 113.22265625 34.765625 111.0625 35.25 C110.35222656 35.42015625 109.64195312 35.5903125 108.91015625 35.765625 C107 36 107 36 105 35 C105 33.35 105 31.7 105 30 C105.66 30 106.32 30 107 30 C106.505 28.515 106.505 28.515 106 27 C106.12109375 25.125 106.12109375 25.125 106.4375 23 C107.3529526 15.62819745 107.91882351 8.92651208 105 2 C103.11532013 2.00666183 103.11532013 2.00666183 101.19256592 2.01345825 C89.36204194 2.05397012 77.531532 2.08396796 65.70095444 2.10362434 C59.61847802 2.11406952 53.53605752 2.12824219 47.45361328 2.15087891 C41.58570047 2.17258099 35.7178415 2.1845631 29.84989166 2.18975449 C27.60915529 2.19345497 25.36842193 2.20068091 23.12770844 2.21146011 C19.99360239 2.22593989 16.85971996 2.2279794 13.72558594 2.22705078 C12.33052071 2.23783661 12.33052071 2.23783661 10.90727234 2.24884033 C10.05194412 2.246091 9.19661591 2.24334167 8.31536865 2.24050903 C7.57424709 2.24235262 6.83312553 2.24419621 6.06954575 2.24609566 C4 2 4 2 0 0 Z " fill="#F7C89E" transform="translate(327,220)"/>
<path d="M0 0 C4.29 0 8.58 0 13 0 C13 4.95 13 9.9 13 15 C3.72265625 15.09765625 3.72265625 15.09765625 1 15 C0 14 0 14 -0.09765625 10.83984375 C-0.08025391 8.90818359 -0.08025391 8.90818359 -0.0625 6.9375 C-0.05347656 5.64714844 -0.04445312 4.35679687 -0.03515625 3.02734375 C-0.02355469 2.02832031 -0.01195312 1.02929688 0 0 Z " fill="#DE7027" transform="translate(64,157)"/>
<path d="M0 0 C10.23 0 20.46 0 31 0 C31 0.66 31 1.32 31 2 C25.11599345 2.85695967 19.44090708 3.12539234 13.5 3.0625 C12.67757812 3.05798828 11.85515625 3.05347656 11.0078125 3.04882812 C9.00517604 3.03718489 7.00257773 3.01925556 5 3 C4.46845258 4.60064843 3.95011647 6.20568874 3.4375 7.8125 C3.14746094 8.70582031 2.85742188 9.59914063 2.55859375 10.51953125 C1.75020444 13.11215139 1.75020444 13.11215139 3 16 C23.13 16 43.26 16 64 16 C63.67 16.66 63.34 17.32 63 18 C54.80309439 18.0231271 46.60620232 18.04091696 38.40927219 18.05181217 C34.60348423 18.0570402 30.79771852 18.06413638 26.99194336 18.07543945 C23.32207456 18.0862712 19.65222722 18.09227744 15.98234367 18.09487724 C14.57925008 18.09673097 13.17615771 18.1003506 11.7730732 18.10573006 C9.8143032 18.11294419 7.8555118 18.11340809 5.89672852 18.11352539 C4.77976089 18.115746 3.66279327 18.11796661 2.51197815 18.12025452 C0 18 0 18 -1 17 C-1.09997642 14.50941086 -1.13879627 12.05272605 -1.125 9.5625 C-1.12886719 8.86833984 -1.13273438 8.17417969 -1.13671875 7.45898438 C-1.12663994 2.25327988 -1.12663994 2.25327988 0 0 Z " fill="#2C232C" transform="translate(171,451)"/>
<path d="M0 0 C4.62 0 9.24 0 14 0 C14.33 4.29 14.66 8.58 15 13 C10.05 13 5.1 13 0 13 C0 8.71 0 4.42 0 0 Z " fill="#F4BC81" transform="translate(203,81)"/>
<path d="M0 0 C0.33 0 0.66 0 1 0 C1 1.98 1 3.96 1 6 C1.6742955 5.99777939 2.348591 5.99555878 3.0433197 5.99327087 C10.03432691 5.97122071 17.02532431 5.95609453 24.01635742 5.94506836 C26.62866619 5.94002623 29.24097211 5.93319275 31.85327148 5.92456055 C35.59880268 5.91248964 39.34429672 5.90677065 43.08984375 5.90234375 C44.26586655 5.89718246 45.44188934 5.89202118 46.65354919 5.88670349 C47.73459427 5.88662796 48.81563934 5.88655243 49.92944336 5.88647461 C50.88652695 5.884254 51.84361053 5.88203339 52.82969666 5.87974548 C55 6 55 6 56 7 C58.32817964 7.36760731 60.6618385 7.70241581 63 8 C63 8.33 63 8.66 63 9 C42.21 9 21.42 9 0 9 C-0.33 6.36 -0.66 3.72 -1 1 C-0.67 0.67 -0.34 0.34 0 0 Z " fill="#38282F" transform="translate(249,460)"/>
<path d="M0 0 C0 0.66 0 1.32 0 2 C0.93005859 1.89171875 0.93005859 1.89171875 1.87890625 1.78125 C7.60951537 1.18066214 13.30393234 0.86813162 19.0625 0.8125 C20.33222656 0.79832031 21.60195312 0.78414063 22.91015625 0.76953125 C26 1 26 1 28 3 C23.05 3 18.1 3 13 3 C13 8.28 13 13.56 13 19 C12.67 19 12.34 19 12 19 C12 13.72 12 8.44 12 3 C7.05 3 2.1 3 -3 3 C-2.979375 5.31 -2.95875 7.62 -2.9375 10 C-2.90162123 18.37287961 -3.40349908 26.64898705 -4 35 C6.56 35 17.12 35 28 35 C27.505 35.99 27.505 35.99 27 37 C22.78247482 37.02473064 18.56498814 37.04287453 14.34741211 37.05493164 C12.91283432 37.05995842 11.47826164 37.06678079 10.04370117 37.07543945 C7.98094418 37.08757752 5.91825496 37.09324486 3.85546875 37.09765625 C2.61434326 37.10289307 1.37321777 37.10812988 0.09448242 37.11352539 C-3 37 -3 37 -6 36 C-7.13858801 31.19262841 -6.80895497 27.09806462 -6.15625 22.26953125 C-5.84390229 19.8338922 -5.84390229 19.8338922 -7 17 C-7.01420248 14.45207498 -6.95419283 11.97596301 -6.8125 9.4375 C-6.79380859 8.75236328 -6.77511719 8.06722656 -6.75585938 7.36132812 C-6.64453125 5.37109375 -6.64453125 5.37109375 -6 2 C-3.83087944 0.35006043 -2.7001305 0 0 0 Z " fill="#D9B691" transform="translate(128,122)"/>
<path d="M0 0 C15.51 0 31.02 0 47 0 C47 10.23 47 20.46 47 31 C46.67 31 46.34 31 46 31 C46 21.43 46 11.86 46 2 C31.48 2 16.96 2 2 2 C2 5.96 2 9.92 2 14 C11.24 14 20.48 14 30 14 C30 14.33 30 14.66 30 15 C20.1 15 10.2 15 0 15 C0 10.05 0 5.1 0 0 Z " fill="#C88055" transform="translate(31,141)"/>
<path d="M0 0 C2.64590014 -0.02684679 5.29153096 -0.04676357 7.9375 -0.0625 C8.69224609 -0.07087891 9.44699219 -0.07925781 10.22460938 -0.08789062 C12.14994313 -0.09652441 14.07535581 -0.05224333 16 0 C17 1 17 1 17.11352539 3.77563477 C17.10828857 4.98533936 17.10305176 6.19504395 17.09765625 7.44140625 C17.09515869 8.61646729 17.09266113 9.79152832 17.09008789 11.00219727 C17.08098389 12.50709717 17.07187988 14.01199707 17.0625 15.5625 C17.041875 20.326875 17.02125 25.09125 17 30 C26.9 30 36.8 30 47 30 C47 35.61 47 41.22 47 47 C46.67 47 46.34 47 46 47 C46 42.05 46 37.1 46 32 C35.77 32 25.54 32 15 32 C15 21.77 15 11.54 15 1 C10.05 1 5.1 1 0 1 C0 0.67 0 0.34 0 0 Z " fill="#644D4D" transform="translate(234,156)"/>
<path d="M0 0 C0.99 0 1.98 0 3 0 C3 10.23 3 20.46 3 31 C-1.95 31 -6.9 31 -12 31 C-12 36.28 -12 41.56 -12 47 C-16.95 47 -21.9 47 -27 47 C-27 46.67 -27 46.34 -27 46 C-22.38 46 -17.76 46 -13 46 C-13 39.73 -13 33.46 -13 27 C-11.68 26.67 -10.36 26.34 -9 26 C-9 26.99 -9 27.98 -9 29 C-6.36 29 -3.72 29 -1 29 C-1 27.35 -1 25.7 -1 24 C-0.34 24 0.32 24 1 24 C1.33 18.39 1.66 12.78 2 7 C1.01 7.33 0.02 7.66 -1 8 C-1.125 2.25 -1.125 2.25 0 0 Z " fill="#CB9D72" transform="translate(433,312)"/>
<path d="M0 0 C0.33 0 0.66 0 1 0 C1.495 7.425 1.495 7.425 2 15 C-0.61521785 16.30760893 -2.53113401 16.11997548 -5.45947266 16.11352539 C-6.60050446 16.11344986 -7.74153625 16.11337433 -8.91714478 16.11329651 C-10.15362762 16.10813522 -11.39011047 16.10297394 -12.6640625 16.09765625 C-13.92640717 16.0962413 -15.18875183 16.09482635 -16.48934937 16.09336853 C-19.84638299 16.08871078 -23.203349 16.07972408 -26.56036377 16.06866455 C-29.98554906 16.0584377 -33.41074134 16.05386818 -36.8359375 16.04882812 C-43.55731043 16.03778238 -50.27865131 16.02103194 -57 16 C-56.67 15.34 -56.34 14.68 -56 14 C-55.34045319 14.00444122 -54.68090637 14.00888245 -54.00137329 14.01345825 C-47.15621094 14.05759777 -40.31108879 14.08782726 -33.46582031 14.10986328 C-30.90883747 14.11994038 -28.35186621 14.13360226 -25.79492188 14.15087891 C-22.12627308 14.17505217 -18.45777621 14.18646585 -14.7890625 14.1953125 C-13.64007477 14.20563507 -12.49108704 14.21595764 -11.30728149 14.22659302 C-10.2463327 14.22674408 -9.18538391 14.22689514 -8.09228516 14.22705078 C-6.68663803 14.23371262 -6.68663803 14.23371262 -5.25259399 14.24050903 C-2.79823929 14.2169323 -2.79823929 14.2169323 -1 12 C-0.53603307 9.10776497 -0.53603307 9.10776497 -0.375 5.875 C-0.30023438 4.77929688 -0.22546875 3.68359375 -0.1484375 2.5546875 C-0.09945312 1.71164062 -0.05046875 0.86859375 0 0 Z " fill="#3D2A2D" transform="translate(233,452)"/>
<path d="M0 0 C15.51 0 31.02 0 47 0 C47 15 47 15 46 19 C44.68 18.67 43.36 18.34 42 18 C41.20046862 14.71303767 40.90341064 13.28976808 42 10 C42.99 10 43.98 10 45 10 C44.505 6.535 44.505 6.535 44 3 C43.01 3 42.02 3 41 3 C40.505 2.505 40.505 2.505 40 2 C37.73225109 1.89976591 35.46136837 1.86918659 33.19140625 1.8671875 C32.50948715 1.86623077 31.82756805 1.86527405 31.12498474 1.86428833 C29.67992053 1.86360661 28.23485328 1.86546031 26.78979492 1.86962891 C24.57528807 1.87496916 22.36098481 1.86968795 20.14648438 1.86328125 C18.74479122 1.86394219 17.34309819 1.86522369 15.94140625 1.8671875 C14.65951416 1.86831543 13.37762207 1.86944336 12.05688477 1.87060547 C9.08375696 1.78771016 9.08375696 1.78771016 7 3 C4.875 2.5625 4.875 2.5625 3 2 C2.67 2.66 2.34 3.32 2 4 C1.34 3.67 0.68 3.34 0 3 C0 2.01 0 1.02 0 0 Z " fill="#F7C99C" transform="translate(280,204)"/>
<path d="M0 0 C0.33 0 0.66 0 1 0 C1 4.95 1 9.9 1 15 C-9.89 15 -20.78 15 -32 15 C-32.33 15.99 -32.66 16.98 -33 18 C-33.99 17.67 -34.98 17.34 -36 17 C-36.6875 14.9375 -36.6875 14.9375 -37 13 C-36.34 13 -35.68 13 -35 13 C-35 12.01 -35 11.02 -35 10 C-32.69 10 -30.38 10 -28 10 C-27.67 10.66 -27.34 11.32 -27 12 C-23.90496944 13.08676781 -20.83634779 13.18969759 -17.578125 13.31640625 C-16.04091797 13.37924805 -16.04091797 13.37924805 -14.47265625 13.44335938 C-13.40917969 13.48267578 -12.34570312 13.52199219 -11.25 13.5625 C-10.17105469 13.60568359 -9.09210938 13.64886719 -7.98046875 13.69335938 C-5.32045789 13.79928901 -2.66024544 13.90013456 0 14 C0 9.38 0 4.76 0 0 Z " fill="#C8996D" transform="translate(389,375)"/>
<path d="M0 0 C10.23 0 20.46 0 31 0 C31 0.66 31 1.32 31 2 C25.11599345 2.85695967 19.44090708 3.12539234 13.5 3.0625 C12.67757812 3.05798828 11.85515625 3.05347656 11.0078125 3.04882812 C9.00517604 3.03718489 7.00257773 3.01925556 5 3 C4.01 5.97 3.02 8.94 2 12 C1.67 12 1.34 12 1 12 C0.67 8.04 0.34 4.08 0 0 Z " fill="#34222C" transform="translate(171,451)"/>
<path d="M0 0 C0.33 0 0.66 0 1 0 C1 1.65 1 3.3 1 5 C11.23 5 21.46 5 32 5 C32 9.95 32 14.9 32 20 C31.67 20 31.34 20 31 20 C30.505 13.565 30.505 13.565 30 7 C23.07 7 16.14 7 9 7 C8.67 7.66 8.34 8.32 8 9 C5.1875 9.3125 5.1875 9.3125 2 9 C0.0625 6.75 0.0625 6.75 -1 4 C-0.6875 1.6875 -0.6875 1.6875 0 0 Z " fill="#E9C29E" transform="translate(248,183)"/>
<path d="M0 0 C0.33 0 0.66 0 1 0 C1 9.57 1 19.14 1 29 C5.89153471 28.9604321 5.89153471 28.9604321 10.78295898 28.90991211 C12.52221717 28.90275087 14.26145304 28.94975298 16 29 C17 30 17 30 17.09765625 33.59765625 C17.0909822 35.08596867 17.07902183 36.57426432 17.0625 38.0625 C17.05798828 38.82111328 17.05347656 39.57972656 17.04882812 40.36132812 C17.0370068 42.24091871 17.01907078 44.12046899 17 46 C16.67 46 16.34 46 16 46 C16 41.05 16 36.1 16 31 C15.01 31.33 14.02 31.66 13 32 C8.71 31.67 4.42 31.34 0 31 C0 20.77 0 10.54 0 0 Z " fill="#33242E" transform="translate(296,422)"/>
<path d="M0 0 C0.33 0 0.66 0 1 0 C1 4.95 1 9.9 1 15 C6.28 15 11.56 15 17 15 C17.495 15.99 17.495 15.99 18 17 C17.34 17.99 16.68 18.98 16 20 C16 18.68 16 17.36 16 16 C14.22880197 16.14133499 12.45804713 16.28823208 10.6875 16.4375 C9.70136719 16.51871094 8.71523437 16.59992188 7.69921875 16.68359375 C4.90624401 16.91812559 4.90624401 16.91812559 2 18 C1.67 22.29 1.34 26.58 1 31 C0.67 31 0.34 31 0 31 C0 26.05 0 21.1 0 16 C-4.95 16 -9.9 16 -15 16 C-15 15.67 -15 15.34 -15 15 C-10.05 15 -5.1 15 0 15 C0 10.05 0 5.1 0 0 Z " fill="#D5A371" transform="translate(202,359)"/>
<path d="M0 0 C4.95 0 9.9 0 15 0 C15 15.18 15 30.36 15 46 C14.34 46 13.68 46 13 46 C13.01047363 44.79875488 13.02094727 43.59750977 13.03173828 42.35986328 C13.06787287 37.91327888 13.09087657 33.46670752 13.10986328 29.02001953 C13.11993582 27.09356506 13.13359443 25.16712592 13.15087891 23.24072266 C13.17507241 20.47554748 13.18647036 17.710574 13.1953125 14.9453125 C13.20563507 14.0806839 13.21595764 13.2160553 13.22659302 12.32522583 C13.22699106 10.21546479 13.12265243 8.10619282 13 6 C12.34 5.34 11.68 4.68 11 4 C11 3.01 11 2.02 11 1 C7.37 1 3.74 1 0 1 C0 0.67 0 0.34 0 0 Z " fill="#DDB597" transform="translate(437,250)"/>
<path d="M0 0 C0.33 0 0.66 0 1 0 C1.33 4.95 1.66 9.9 2 15 C4.97 15.495 4.97 15.495 8 16 C7.67 16.99 7.34 17.98 7 19 C5.22265625 19.765625 5.22265625 19.765625 3.0625 20.25 C2.35222656 20.42015625 1.64195312 20.5903125 0.91015625 20.765625 C-1 21 -1 21 -3 20 C-3 18.35 -3 16.7 -3 15 C-2.34 15 -1.68 15 -1 15 C-1.33 14.01 -1.66 13.02 -2 12 C-1.75867872 9.9279656 -1.43760371 7.86453794 -1.0625 5.8125 C-0.86785156 4.72582031 -0.67320312 3.63914063 -0.47265625 2.51953125 C-0.31667969 1.68808594 -0.16070312 0.85664063 0 0 Z " fill="#F5C191" transform="translate(435,235)"/>
<path d="M0 0 C4.95 0 9.9 0 15 0 C15 0.66 15 1.32 15 2 C8.565 2.495 8.565 2.495 2 3 C1.67 6.96 1.34 10.92 1 15 C5.62 15 10.24 15 15 15 C15 15.33 15 15.66 15 16 C10.05 16 5.1 16 0 16 C0 10.72 0 5.44 0 0 Z " fill="#F5EDDE" transform="translate(125,125)"/>
<path d="M0 0 C4.95 0 9.9 0 15 0 C15 8.25 15 16.5 15 25 C14.67 25 14.34 25 14 25 C13.67 17.74 13.34 10.48 13 3 C9.08610821 2.21722164 7.3447585 1.87961311 3.6875 2.4375 C1.8621875 2.7159375 1.8621875 2.7159375 0 3 C0 2.01 0 1.02 0 0 Z " fill="#E6BF96" transform="translate(234,157)"/>
<path d="M0 0 C1.485 0.99 1.485 0.99 3 2 C2.34 11.24 1.68 20.48 1 30 C1.66 30.33 2.32 30.66 3 31 C2.01 31 1.02 31 0 31 C0 20.77 0 10.54 0 0 Z " fill="#CDA883" transform="translate(125,358)"/>
<path d="M0 0 C0 0.99 0 1.98 0 3 C-3.54674003 4.18224668 -5.97522995 3.89329634 -9.6875 3.5625 C-10.86699219 3.46066406 -12.04648438 3.35882813 -13.26171875 3.25390625 C-14.16535156 3.17011719 -15.06898437 3.08632813 -16 3 C-16 2.01 -16 1.02 -16 0 C-10.47032059 -0.71033431 -5.50016964 -1.30267176 0 0 Z " fill="#D99F64" transform="translate(128,354)"/>
<path d="M0 0 C0.33 0 0.66 0 1 0 C1 5.28 1 10.56 1 16 C-4.28 16 -9.56 16 -15 16 C-15 15.67 -15 15.34 -15 15 C-9.06 14.505 -9.06 14.505 -3 14 C-1.47625318 10.19063294 -0.72113533 8.05267785 -0.375 4.1875 C-0.30023438 3.39730469 -0.22546875 2.60710937 -0.1484375 1.79296875 C-0.09945313 1.20128906 -0.05046875 0.60960937 0 0 Z " fill="#C89E74" transform="translate(451,296)"/>
<path d="M0 0 C0.99 0 1.98 0 3 0 C2.67 0.99 2.34 1.98 2 3 C1.77674186 5.05893621 1.59294241 7.12233653 1.4375 9.1875 C1.35371094 10.27417969 1.26992187 11.36085937 1.18359375 12.48046875 C1.12300781 13.31191406 1.06242187 14.14335937 1 15 C1.66 15.33 2.32 15.66 3 16 C2.67 16.33 2.34 16.66 2 17 C1.76472227 19.34987262 1.58613583 21.70556039 1.4375 24.0625 C1.35371094 25.35285156 1.26992187 26.64320313 1.18359375 27.97265625 C1.12300781 28.97167969 1.06242187 29.97070312 1 31 C0.67 31 0.34 31 0 31 C0 20.77 0 10.54 0 0 Z " fill="#D6B08E" transform="translate(94,204)"/>
<path d="M0 0 C0.66 0 1.32 0 2 0 C2.06058594 0.74765625 2.12117187 1.4953125 2.18359375 2.265625 C2.26738281 3.25046875 2.35117188 4.2353125 2.4375 5.25 C2.51871094 6.22453125 2.59992188 7.1990625 2.68359375 8.203125 C2.95074584 10.56461753 3.35371968 12.71901065 4 15 C3.01 15.33 2.02 15.66 1 16 C0 15 0 15 -0.09765625 11.62109375 C-0.09098369 10.22652923 -0.07902532 8.83198257 -0.0625 7.4375 C-0.05798828 6.72658203 -0.05347656 6.01566406 -0.04882812 5.28320312 C-0.03700864 3.52209987 -0.01907263 1.76103964 0 0 Z " fill="#1D1620" transform="translate(170,453)"/>
<path d="M0 0 C0.66 0 1.32 0 2 0 C2 4.62 2 9.24 2 14 C0.35 14 -1.3 14 -3 14 C-3 12.35 -3 10.7 -3 9 C-2.01 8.67 -1.02 8.34 0 8 C0 5.36 0 2.72 0 0 Z " fill="#D5A068" transform="translate(387,375)"/>
<path d="M0 0 C5.28 0 10.56 0 16 0 C16 0.33 16 0.66 16 1 C14.329375 1.2165625 14.329375 1.2165625 12.625 1.4375 C9.17857953 1.78372035 9.17857953 1.78372035 7 3 C4.875 2.5625 4.875 2.5625 3 2 C2.67 2.66 2.34 3.32 2 4 C1.34 3.67 0.68 3.34 0 3 C0 2.01 0 1.02 0 0 Z " fill="#EDC29A" transform="translate(280,204)"/>
<path d="M0 0 C-0.99 1.485 -0.99 1.485 -2 3 C-2.66 3 -3.32 3 -4 3 C-4 3.66 -4 4.32 -4 5 C-5.32 4.67 -6.64 4.34 -8 4 C-8 2.68 -8 1.36 -8 0 C-4.71023192 -1.09658936 -3.28696233 -0.79953138 0 0 Z " fill="#D7A060" transform="translate(408,354)"/>
<path d="M0 0 C0.33 0 0.66 0 1 0 C1 4.95 1 9.9 1 15 C0.34 15 -0.32 15 -1 15 C-2.19126781 11.42619658 -1.7349445 9.49116698 -1.0625 5.8125 C-0.86785156 4.72582031 -0.67320312 3.63914063 -0.47265625 2.51953125 C-0.31667969 1.68808594 -0.16070312 0.85664063 0 0 Z " fill="#EBC499" transform="translate(435,235)"/>
<path d="M0 0 C0.33 0 0.66 0 1 0 C1.33 2.31 1.66 4.62 2 7 C5.465 6.505 5.465 6.505 9 6 C8.67 6.99 8.34 7.98 8 9 C5.1875 9.3125 5.1875 9.3125 2 9 C0.0625 6.75 0.0625 6.75 -1 4 C-0.6875 1.6875 -0.6875 1.6875 0 0 Z " fill="#EBBB8D" transform="translate(248,183)"/>
<path d="M0 0 C0.33 0 0.66 0 1 0 C1 3.63 1 7.26 1 11 C-0.65 11 -2.3 11 -4 11 C-4 10.01 -4 9.02 -4 8 C-2.68 8 -1.36 8 0 8 C0 5.36 0 2.72 0 0 Z " fill="#D4A165" transform="translate(403,362)"/>
<path d="M0 0 C0.33 0 0.66 0 1 0 C1 4.29 1 8.58 1 13 C2.32 13.33 3.64 13.66 5 14 C3.35 14.33 1.7 14.66 0 15 C-1.37252731 12.25494537 -1.13229255 9.99672588 -1.125 6.9375 C-1.12757812 5.85339844 -1.13015625 4.76929688 -1.1328125 3.65234375 C-1 1 -1 1 0 0 Z " fill="#CB9E72" transform="translate(108,237)"/>
<path d="M0 0 C0.66 0 1.32 0 2 0 C1.98839844 0.75925781 1.97679687 1.51851563 1.96484375 2.30078125 C1.95582031 3.29464844 1.94679687 4.28851563 1.9375 5.3125 C1.92589844 6.29863281 1.91429687 7.28476562 1.90234375 8.30078125 C1.87670138 11.09963849 1.87670138 11.09963849 3 14 C2.01 14 1.02 14 0 14 C0 9.38 0 4.76 0 0 Z " fill="#5D3A39" transform="translate(203,438)"/>
<path d="M0 0 C0.66 0.66 1.32 1.32 2 2 C1.625 5.625 1.625 5.625 1 9 C0.01 9 -0.98 9 -2 9 C-1.125 1.125 -1.125 1.125 0 0 Z " fill="#D9A15D" transform="translate(419,335)"/>
<path d="M0 0 C0.66 0 1.32 0 2 0 C1.67 2.31 1.34 4.62 1 7 C0.34 7 -0.32 7 -1 7 C-1.33 7.66 -1.66 8.32 -2 9 C-1.125 1.125 -1.125 1.125 0 0 Z " fill="#D8A067" transform="translate(326,400)"/>
</svg>
